<svg width="66" height="50" viewBox="0 0 66 50" fill="none" xmlns="http://www.w3.org/2000/svg">
<path d="M5.97593 12.8329L-1.87207 17.8969V28.0489L5.97593 23.2249V12.8329Z" fill="#3E704D" stroke="#3E704D" stroke-width="0.0205"/>
<path d="M-1.87207 32.1045L5.97593 27.2805V24.3765L-1.87207 29.3445V32.1045Z" fill="white" stroke="#3E704D" stroke-width="0.0205"/>
<path d="M-1.87207 42.313H5.97593V28.441L-1.87207 33.385V42.313Z" fill="#3E704D" stroke="#3E704D" stroke-width="0.0205"/>
<path d="M14.4956 16.5322L6.95959 11.6842V14.6842L14.4956 19.3162V16.5322Z" fill="white" stroke="#3E704D" stroke-width="0.0205"/>
<path d="M6.95959 15.8334V42.3054H14.4956V20.5854L6.95959 15.8334Z" fill="white" stroke="#3E704D" stroke-width="0.0205"/>
<path d="M21.552 38.8072V41.5432C21.216 41.8072 20.832 41.9992 20.448 42.1192C20.04 42.2632 19.608 42.3112 19.152 42.3112C18.6 42.3112 18.096 42.2392 17.64 42.0472C17.184 41.8792 16.8 41.6152 16.488 41.3032C16.176 40.9912 15.936 40.6072 15.768 40.1512C15.576 39.6952 15.504 39.2152 15.504 38.6872C15.504 38.1352 15.576 37.6312 15.744 37.1992C15.912 36.7432 16.152 36.3592 16.464 36.0472C16.776 35.7112 17.136 35.4712 17.568 35.3032C18.024 35.1112 18.504 35.0392 19.056 35.0392C19.32 35.0392 19.584 35.0392 19.8 35.0872C20.04 35.1352 20.256 35.1832 20.472 35.2792C20.664 35.3512 20.856 35.4472 21.024 35.5432C21.192 35.6632 21.336 35.7832 21.504 35.9272L21.24 36.3592C21.192 36.4312 21.144 36.4792 21.072 36.5032C21 36.5032 20.928 36.5032 20.856 36.4552C20.76 36.4072 20.688 36.3352 20.592 36.2872C20.472 36.2152 20.352 36.1432 20.208 36.0952C20.064 36.0232 19.896 35.9752 19.704 35.9272C19.512 35.8792 19.272 35.8552 19.008 35.8552C18.624 35.8552 18.264 35.9272 17.952 36.0712C17.64 36.1912 17.376 36.3832 17.16 36.6232C16.92 36.8632 16.752 37.1512 16.632 37.5112C16.512 37.8472 16.464 38.2552 16.464 38.6872C16.464 39.1192 16.512 39.5272 16.656 39.8872C16.776 40.2232 16.944 40.5352 17.184 40.7752C17.4 41.0152 17.688 41.2072 18.024 41.3512C18.336 41.4712 18.72 41.5432 19.128 41.5432C19.44 41.5432 19.728 41.4952 19.992 41.4232C20.232 41.3512 20.472 41.2552 20.712 41.1112V39.5512H19.632C19.584 39.5512 19.536 39.5272 19.488 39.5032C19.44 39.4552 19.44 39.4072 19.44 39.3592V38.8072H21.552ZM27.696 41.4232V42.2392H23.76V35.1112H24.696V41.4232H27.696ZM35.592 38.6872C35.592 39.2152 35.496 39.6952 35.328 40.1512C35.16 40.5832 34.944 40.9672 34.632 41.3032C34.344 41.6152 33.984 41.8792 33.552 42.0472C33.144 42.2152 32.664 42.3112 32.16 42.3112C31.656 42.3112 31.2 42.2152 30.768 42.0472C30.36 41.8792 30 41.6152 29.688 41.3032C29.4 40.9672 29.16 40.5832 28.992 40.1512C28.824 39.6952 28.752 39.2152 28.752 38.6872C28.752 38.1352 28.824 37.6552 28.992 37.1992C29.16 36.7672 29.4 36.3832 29.688 36.0472C30 35.7352 30.36 35.4712 30.768 35.3032C31.2 35.1112 31.656 35.0392 32.16 35.0392C32.664 35.0392 33.144 35.1112 33.552 35.3032C33.984 35.4712 34.344 35.7352 34.632 36.0472C34.944 36.3832 35.16 36.7672 35.328 37.1992C35.496 37.6552 35.592 38.1352 35.592 38.6872ZM34.632 38.6872C34.632 38.2312 34.56 37.8472 34.44 37.4872C34.32 37.1512 34.176 36.8632 33.96 36.6232C33.744 36.3832 33.48 36.1912 33.192 36.0472C32.88 35.9272 32.544 35.8552 32.16 35.8552C31.8 35.8552 31.464 35.9272 31.152 36.0472C30.864 36.1912 30.6 36.3832 30.384 36.6232C30.168 36.8632 30 37.1512 29.88 37.4872C29.76 37.8472 29.712 38.2312 29.712 38.6872C29.712 39.1192 29.76 39.5032 29.88 39.8632C30 40.1992 30.168 40.4872 30.384 40.7272C30.6 40.9672 30.864 41.1592 31.152 41.2792C31.464 41.4232 31.8 41.4712 32.16 41.4712C32.544 41.4712 32.88 41.4232 33.192 41.2792C33.48 41.1592 33.744 40.9672 33.96 40.7272C34.176 40.4872 34.32 40.1992 34.44 39.8632C34.56 39.5032 34.632 39.1192 34.632 38.6872ZM40.128 41.4712C40.392 41.4712 40.632 41.4472 40.824 41.3752C41.016 41.3272 41.16 41.2312 41.304 41.1112C41.424 40.9912 41.52 40.8712 41.568 40.7032C41.616 40.5352 41.664 40.3672 41.664 40.1752C41.664 39.8152 41.52 39.5272 41.28 39.3112C41.016 39.0952 40.632 38.9992 40.128 38.9992H38.64V41.4712H40.128ZM38.64 35.8792V38.3032H39.864C40.128 38.3032 40.368 38.2792 40.56 38.2072C40.752 38.1592 40.92 38.0632 41.04 37.9672C41.16 37.8472 41.256 37.7272 41.328 37.5832C41.376 37.4152 41.424 37.2712 41.424 37.0792C41.424 36.6712 41.28 36.3592 41.04 36.1672C40.8 35.9752 40.416 35.8792 39.912 35.8792H38.64ZM39.912 35.1112C40.32 35.1112 40.704 35.1592 41.016 35.2312C41.304 35.3272 41.568 35.4472 41.76 35.6152C41.952 35.7592 42.096 35.9512 42.192 36.1912C42.288 36.4312 42.336 36.6712 42.336 36.9592C42.336 37.1512 42.312 37.3192 42.264 37.4632C42.216 37.6312 42.12 37.7752 42.024 37.9192C41.904 38.0632 41.784 38.1832 41.616 38.3032C41.448 38.3992 41.256 38.4952 41.04 38.5672C41.544 38.6632 41.928 38.8552 42.192 39.1192C42.456 39.4072 42.576 39.7672 42.576 40.1992C42.576 40.5112 42.528 40.7752 42.408 41.0392C42.312 41.2792 42.144 41.4952 41.952 41.6872C41.736 41.8552 41.472 41.9992 41.184 42.0952C40.872 42.1912 40.536 42.2392 40.152 42.2392H37.704V35.1112H39.912ZM48.312 39.5992L47.208 36.6952C47.184 36.5992 47.16 36.5032 47.112 36.3832C47.088 36.2632 47.04 36.1432 47.016 36.0232C46.944 36.2872 46.872 36.5272 46.8 36.6952L45.72 39.5992H48.312ZM50.256 42.2392H49.536C49.44 42.2392 49.368 42.2152 49.32 42.1672C49.272 42.1432 49.224 42.0712 49.2 41.9992L48.552 40.2952H45.456L44.808 41.9992C44.784 42.0712 44.76 42.1192 44.688 42.1672C44.64 42.2152 44.568 42.2392 44.496 42.2392H43.776L46.536 35.1112H47.496L50.256 42.2392ZM55.872 41.4232V42.2392H51.936V35.1112H52.872V41.4232H55.872Z" fill="#3E704D"/>
<path d="M21.3118 41.5386V38.8026H21.7918V41.5386L21.6958 41.7306L21.3118 41.5386ZM21.7918 41.5386V41.6586L21.6958 41.7306L21.7918 41.5386ZM20.5198 42.3546L20.3758 41.8986L20.3998 41.8746H20.4478L20.4718 41.8506H20.5198L20.5438 41.8266L20.5678 41.8026H20.6158L20.6398 41.7786H20.6878L20.7118 41.7546H20.7358L20.7838 41.7306L20.8078 41.7066H20.8558L20.8798 41.6826L20.9038 41.6586L20.9518 41.6346H20.9758L20.9998 41.6106L21.0478 41.5866L21.0718 41.5626H21.0958L21.1438 41.5386L21.1678 41.5146L21.1918 41.4906L21.2398 41.4666L21.2638 41.4426H21.2878L21.3358 41.4186L21.3598 41.3946L21.3838 41.3706L21.4078 41.3466L21.6958 41.7306L21.6718 41.7786L21.6238 41.8026L21.5998 41.8266L21.5518 41.8506L21.5278 41.8746L21.4798 41.8986L21.4558 41.9226H21.4078L21.3838 41.9466L21.3358 41.9706L21.3118 41.9946L21.2638 42.0186L21.2398 42.0426L21.1918 42.0666L21.1678 42.0906H21.1198L21.0958 42.1146L21.0478 42.1386L21.0238 42.1626H20.9758L20.9278 42.1866L20.9038 42.2106L20.8558 42.2346H20.8318L20.7838 42.2586L20.7598 42.2826H20.7118L20.6638 42.3066H20.6398L20.5918 42.3306L20.5438 42.3546H20.5198ZM19.1518 42.5706V42.0666H19.1998H19.2238H19.2718H19.3198H19.3438H19.3918H19.4398H19.4638H19.5118L19.5598 42.0426H19.5838H19.6318H19.6798H19.7038L19.7518 42.0186H19.7998H19.8238H19.8718L19.8958 41.9946H19.9438H19.9678H20.0158L20.0638 41.9706H20.0878L20.1358 41.9466H20.1598H20.2078L20.2318 41.9226H20.2798L20.3038 41.8986H20.3278H20.3758L20.5198 42.3546L20.4718 42.3786H20.4478L20.3998 42.4026H20.3518L20.3278 42.4266H20.2798H20.2318L20.1838 42.4506H20.1598L20.1118 42.4746H20.0638H20.0158L19.9918 42.4986H19.9438H19.8958H19.8478L19.8238 42.5226H19.7758H19.7278H19.6798L19.6318 42.5466H19.6078H19.5598H19.5118H19.4638H19.4158H19.3678H19.3198H19.2718L19.2478 42.5706H19.1998H19.1518ZM17.5438 42.2826L17.7358 41.8266H17.7598L17.8078 41.8506L17.8318 41.8746H17.8798L17.9278 41.8986H17.9758L17.9998 41.9226H18.0478L18.0958 41.9466H18.1198L18.1678 41.9706H18.2158H18.2638L18.3118 41.9946H18.3358H18.3838L18.4318 42.0186H18.4798H18.5278L18.5758 42.0426H18.6238H18.6718H18.7198H18.7678L18.8158 42.0666H18.8638H18.9118H18.9598H19.0078H19.0558H19.1038H19.1518V42.5706H19.1038H19.0318L18.9838 42.5466H18.9358H18.8878H18.8158H18.7678H18.7198H18.6718L18.6238 42.5226H18.5518H18.5038H18.4558L18.4078 42.4986H18.3598H18.3118L18.2638 42.4746H18.2158L18.1678 42.4506H18.1198L18.0718 42.4266H18.0238L17.9758 42.4026H17.9278L17.8798 42.3786H17.8318L17.7838 42.3546H17.7358L17.6878 42.3306L17.6398 42.3066L17.5918 42.2826H17.5438ZM16.3198 41.4666L16.6558 41.1306L16.6798 41.1546L16.7038 41.1786L16.7518 41.2026L16.7758 41.2266L16.7998 41.2506L16.8238 41.2746L16.8478 41.2986L16.8958 41.3466L16.9198 41.3706L16.9438 41.3946L16.9918 41.4186L17.0158 41.4426H17.0398L17.0878 41.4666L17.1118 41.4906L17.1358 41.5146L17.1838 41.5386L17.2078 41.5626L17.2558 41.5866L17.2798 41.6106L17.3038 41.6346H17.3518L17.3758 41.6586L17.4238 41.6826L17.4478 41.7066H17.4958L17.5198 41.7306L17.5678 41.7546L17.6158 41.7786H17.6398L17.6878 41.8026L17.7358 41.8266L17.5438 42.2826L17.5198 42.2586L17.4718 42.2346L17.4238 42.2106H17.3758L17.3278 42.1866L17.3038 42.1626L17.2558 42.1386L17.2078 42.1146L17.1598 42.0906L17.1358 42.0666H17.0878L17.0398 42.0426L17.0158 42.0186L16.9678 41.9946L16.9198 41.9706L16.8958 41.9466L16.8478 41.8986L16.8238 41.8746L16.7758 41.8506L16.7278 41.8266L16.7038 41.8026L16.6558 41.7786L16.6318 41.7546L16.5838 41.7306L16.5598 41.6826L16.5358 41.6586L16.4878 41.6346L16.4638 41.6106L16.4158 41.5626L16.3918 41.5386L16.3678 41.5146L16.3198 41.4666ZM15.5278 40.2426L15.9838 40.0506V40.0986L16.0078 40.1466L16.0318 40.1706V40.2186L16.0558 40.2426L16.0798 40.2906L16.1038 40.3146V40.3626L16.1278 40.3866L16.1518 40.4346L16.1758 40.4586V40.5066L16.1998 40.5306L16.2238 40.5786L16.2478 40.6026L16.2718 40.6506L16.2958 40.6746L16.3198 40.6986L16.3438 40.7466L16.3678 40.7706L16.3918 40.7946V40.8426L16.4158 40.8666L16.4398 40.8906L16.4638 40.9146L16.5118 40.9626L16.5358 40.9866L16.5598 41.0106L16.5838 41.0346L16.6078 41.0586L16.6318 41.1066L16.6558 41.1306L16.3198 41.4666L16.2958 41.4426L16.2718 41.4186L16.2238 41.3706L16.1998 41.3466L16.1758 41.2986L16.1518 41.2746L16.1038 41.2506L16.0798 41.2026L16.0558 41.1786L16.0318 41.1306L16.0078 41.1066L15.9838 41.0586L15.9358 41.0106L15.9118 40.9866L15.8878 40.9386L15.8638 40.9146L15.8398 40.8666L15.8158 40.8186L15.7918 40.7946L15.7678 40.7466L15.7438 40.6986L15.7198 40.6746V40.6266L15.6958 40.5786L15.6718 40.5546L15.6478 40.5066L15.6238 40.4586L15.5998 40.4106V40.3626L15.5758 40.3386L15.5518 40.2906L15.5278 40.2426ZM15.2638 38.6826H15.7438V38.7306V38.7786V38.8026V38.8506V38.8986V38.9466V38.9946V39.0426L15.7678 39.0906V39.1386V39.1866V39.2346L15.7918 39.2586V39.3066V39.3546V39.4026L15.8158 39.4506V39.4986V39.5226L15.8398 39.5706V39.6186L15.8638 39.6666V39.6906V39.7386L15.8878 39.7866V39.8106L15.9118 39.8586L15.9358 39.9066V39.9306L15.9598 39.9786V40.0266L15.9838 40.0506L15.5278 40.2426V40.1946L15.5038 40.1466L15.4798 40.0986V40.0506L15.4558 40.0026V39.9546L15.4318 39.9306L15.4078 39.8826V39.8346L15.3838 39.7866V39.7386L15.3598 39.6906V39.6426V39.5946L15.3358 39.5466V39.4986V39.4266L15.3118 39.3786V39.3306V39.2826L15.2878 39.2346V39.1866V39.1386V39.0906V39.0426L15.2638 38.9946V38.9226V38.8746V38.8266V38.7786V38.7306V38.6826ZM15.5278 37.0986L15.9838 37.2666L15.9598 37.3146L15.9358 37.3386V37.3866L15.9118 37.4346V37.4586L15.8878 37.5066V37.5546L15.8638 37.6026V37.6266V37.6746L15.8398 37.7226V37.7706L15.8158 37.7946V37.8426V37.8906L15.7918 37.9386V37.9866V38.0106L15.7678 38.0586V38.1066V38.1546V38.2026V38.2506L15.7438 38.2986V38.3466V38.3946V38.4426V38.4906V38.5386V38.5866V38.6346V38.6826H15.2638V38.6106V38.5626V38.5146V38.4666V38.4186V38.3466L15.2878 38.2986V38.2506V38.2026V38.1546V38.1066L15.3118 38.0586V38.0106V37.9386V37.8906L15.3358 37.8426V37.7946L15.3598 37.7466V37.6986V37.6506L15.3838 37.6026V37.5546L15.4078 37.5066V37.4586L15.4318 37.4106V37.3626L15.4558 37.3146V37.2666L15.4798 37.2426L15.5038 37.1946V37.1466L15.5278 37.0986ZM16.2958 35.8506L16.6318 36.2106L16.6078 36.2346L16.5838 36.2586L16.5598 36.2826L16.5358 36.3066L16.5118 36.3546L16.4878 36.3786L16.4638 36.4026L16.4398 36.4266L16.4158 36.4746L16.3918 36.4986L16.3678 36.5226L16.3438 36.5706L16.3198 36.5946L16.2958 36.6186L16.2718 36.6666L16.2478 36.6906L16.2238 36.7146V36.7626L16.1998 36.7866L16.1758 36.8346L16.1518 36.8586L16.1278 36.9066V36.9306L16.1038 36.9786L16.0798 37.0026V37.0506L16.0558 37.0746L16.0318 37.1226V37.1466L16.0078 37.1946L15.9838 37.2426V37.2666L15.5278 37.0986L15.5518 37.0506V37.0026L15.5758 36.9546L15.5998 36.9306L15.6238 36.8826L15.6478 36.8346V36.7866L15.6718 36.7386L15.6958 36.7146L15.7198 36.6666L15.7438 36.6186L15.7678 36.5946L15.7918 36.5466L15.8158 36.4986L15.8398 36.4746V36.4266L15.8878 36.3786L15.9118 36.3546L15.9358 36.3066L15.9598 36.2826L15.9838 36.2346L16.0078 36.2106L16.0318 36.1626L16.0558 36.1386L16.0798 36.0906L16.1038 36.0666L16.1518 36.0186L16.1758 35.9946L16.1998 35.9466L16.2238 35.9226L16.2478 35.8986L16.2958 35.8506ZM17.4958 35.0586L17.6638 35.5146L17.6158 35.5386H17.5918L17.5438 35.5626L17.5198 35.5866H17.4718L17.4478 35.6106L17.3998 35.6346L17.3758 35.6586H17.3278L17.3038 35.6826L17.2558 35.7066L17.2318 35.7306L17.1838 35.7546L17.1598 35.7786H17.1358L17.0878 35.8026L17.0638 35.8266L17.0398 35.8506L16.9918 35.8746L16.9678 35.8986L16.9438 35.9226L16.9198 35.9466L16.8718 35.9706L16.8478 35.9946L16.8238 36.0186L16.7998 36.0426L16.7758 36.0666L16.7278 36.0906L16.7038 36.1146L16.6798 36.1386L16.6558 36.1866L16.6318 36.2106L16.2958 35.8506L16.3198 35.8266L16.3438 35.8026L16.3918 35.7546L16.4158 35.7306L16.4398 35.7066L16.4878 35.6826L16.5118 35.6346L16.5598 35.6106L16.5838 35.5866L16.6318 35.5626L16.6558 35.5386L16.7038 35.4906L16.7278 35.4666L16.7758 35.4426L16.7998 35.4186L16.8478 35.3946L16.8718 35.3706L16.9198 35.3466L16.9438 35.3226L16.9918 35.2986L17.0398 35.2746L17.0638 35.2506L17.1118 35.2266L17.1598 35.2026H17.1838L17.2318 35.1786L17.2798 35.1546L17.3278 35.1306L17.3518 35.1066H17.3998L17.4478 35.0826L17.4958 35.0586ZM19.0558 34.7706V35.2746H19.0078H18.9598H18.9118H18.8638H18.8158H18.7678H18.7198H18.6718L18.6238 35.2986H18.5758H18.5278H18.4798H18.4318L18.4078 35.3226H18.3598H18.3118L18.2638 35.3466H18.2158H18.1918L18.1438 35.3706H18.0958L18.0478 35.3946H18.0238L17.9758 35.4186H17.9278L17.9038 35.4426H17.8558L17.8078 35.4666H17.7838L17.7358 35.4906H17.7118L17.6638 35.5146L17.4958 35.0586L17.5438 35.0346H17.5678L17.6158 35.0106L17.6638 34.9866H17.7118L17.7598 34.9626L17.8078 34.9386H17.8558L17.9038 34.9146H17.9518L17.9998 34.8906H18.0478L18.0958 34.8666H18.1438H18.1918L18.2398 34.8426H18.2878H18.3358L18.3838 34.8186H18.4318H18.4798L18.5278 34.7946H18.5758H18.6238H18.6718H18.7198H18.7918L18.8398 34.7706H18.8878H18.9358H18.9838H19.0558ZM19.8478 34.8426L19.7758 35.3226H19.7518H19.7278H19.7038H19.6798L19.6558 35.2986H19.6318H19.6078H19.5838H19.5598H19.5358H19.5118H19.4878H19.4638L19.4398 35.2746H19.4158H19.3918H19.3678H19.3438H19.3198H19.2958H19.2718H19.2478H19.2238H19.1998H19.1758H19.1518H19.1278H19.1038H19.0798H19.0558V34.7706H19.0798H19.1038H19.1278H19.1518H19.1758H19.1998H19.2238H19.2478L19.2718 34.7946H19.2958H19.3438H19.3678H19.3918H19.4158H19.4398H19.4638H19.4878H19.5118H19.5358H19.5598H19.5838L19.6078 34.8186H19.6318H19.6558H19.6798H19.7038H19.7278H19.7518L19.7758 34.8426H19.7998H19.8238H19.8478ZM20.5438 35.0346L20.3758 35.4906H20.3518L20.3278 35.4666H20.3038H20.2798L20.2558 35.4426H20.2318H20.2078L20.1838 35.4186H20.1598H20.1358L20.1118 35.3946H20.0878H20.0638H20.0398L20.0158 35.3706H19.9918H19.9678H19.9438H19.9198V35.3466H19.8958H19.8718H19.8478H19.8238L19.7998 35.3226H19.7758L19.8478 34.8426H19.8718H19.8958L19.9198 34.8666H19.9438H19.9678H19.9918H20.0158L20.0398 34.8906H20.0638H20.0878H20.1118L20.1358 34.9146H20.1598H20.1838H20.2078L20.2318 34.9386H20.2558H20.2798H20.3038L20.3278 34.9626H20.3518L20.3758 34.9866H20.3998H20.4238H20.4478L20.4718 35.0106H20.4958L20.5198 35.0346H20.5438ZM21.1438 35.3466L20.8798 35.7546L20.8558 35.7306L20.8318 35.7066H20.8078L20.7838 35.6826H20.7598L20.7358 35.6586H20.7118L20.6878 35.6346L20.6638 35.6106H20.6398L20.6158 35.5866H20.5918H20.5678V35.5626H20.5438H20.5198L20.4958 35.5386H20.4718L20.4478 35.5146H20.4238H20.3998V35.4906H20.3758L20.5438 35.0346H20.5678L20.5918 35.0586H20.6158L20.6398 35.0826H20.6638H20.6878L20.7118 35.1066H20.7358L20.7598 35.1306H20.7838L20.8078 35.1546H20.8318L20.8558 35.1786H20.8798L20.9038 35.2026H20.9278L20.9518 35.2266H20.9758V35.2506H20.9998L21.0238 35.2746H21.0478L21.0718 35.2986H21.0958L21.1198 35.3226L21.1438 35.3466ZM21.6958 36.0426L21.2878 35.8026L21.3358 36.1146L21.3118 36.0906L21.2878 36.0666L21.2638 36.0426L21.2398 36.0186L21.2158 35.9946H21.1918V35.9706H21.1678V35.9466H21.1438V35.9226H21.1198L21.0958 35.8986H21.0718V35.8746H21.0478L21.0238 35.8506L20.9998 35.8266H20.9758L20.9518 35.8026L20.9278 35.7786L20.9038 35.7546H20.8798L21.1438 35.3466H21.1678V35.3706H21.1918L21.2158 35.3946H21.2398V35.4186H21.2638L21.2878 35.4426L21.3118 35.4666H21.3358V35.4906H21.3598L21.3838 35.5146L21.4078 35.5386H21.4318V35.5626H21.4558L21.4798 35.5866L21.5038 35.6106H21.5278V35.6346L21.5518 35.6586H21.5758V35.6826H21.5998V35.7066H21.6238L21.6478 35.7306V35.7546L21.6958 36.0426ZM21.6478 35.7546L21.7918 35.8746L21.6958 36.0426L21.6478 35.7546ZM21.0238 36.2346L21.2878 35.8026L21.6958 36.0426L21.4318 36.4986L21.0238 36.2346ZM21.1198 36.7146L20.9998 36.2586H21.0238V36.2346L21.4318 36.4986L21.4078 36.5226V36.5466H21.3838V36.5706H21.3598V36.5946H21.3358V36.6186H21.3118V36.6426H21.2878L21.2638 36.6666H21.2398V36.6906H21.2158H21.1918V36.7146H21.1678H21.1438H21.1198ZM20.7358 36.6426L20.9758 36.2346H20.9998V36.2586H21.0238H20.9998H21.0238H20.9998H21.0238H20.9998L21.1198 36.7146V36.7386H21.0958H21.0718H21.0478H21.0238H20.9998H20.9758H20.9518H20.9278H20.9038L20.8798 36.7146H20.8558H20.8318L20.8078 36.6906H20.7838L20.7598 36.6666H20.7358V36.6426ZM20.4478 36.4746L20.7118 36.0666H20.7358V36.0906H20.7598L20.7838 36.1146H20.8078V36.1386H20.8318V36.1626H20.8558H20.8798V36.1866H20.9038L20.9278 36.2106H20.9518V36.2346H20.9758L20.7358 36.6426H20.7118H20.6878V36.6186H20.6638L20.6398 36.5946H20.6158V36.5706H20.5918L20.5678 36.5466H20.5438V36.5226H20.5198L20.4958 36.4986H20.4718V36.4746H20.4478ZM20.1358 36.3066L20.3038 35.8506H20.3278V35.8746H20.3518H20.3758L20.3998 35.8986H20.4238L20.4478 35.9226H20.4718L20.4958 35.9466H20.5198L20.5438 35.9706H20.5678V35.9946H20.5918H20.6158V36.0186H20.6398L20.6638 36.0426H20.6878V36.0666H20.7118L20.4478 36.4746H20.4238V36.4506H20.3998L20.3758 36.4266H20.3518V36.4026H20.3278H20.3038V36.3786H20.2798H20.2558V36.3546H20.2318H20.2078V36.3306H20.1838H20.1598V36.3066H20.1358ZM19.6558 36.1626L19.7518 35.6826H19.7758H19.7998L19.8238 35.7066H19.8478H19.8718H19.8958L19.9198 35.7306H19.9438H19.9678H19.9918V35.7546H20.0158H20.0398H20.0638L20.0878 35.7786H20.1118H20.1358L20.1598 35.8026H20.1838H20.2078V35.8266H20.2318H20.2558L20.2798 35.8506H20.3038L20.1358 36.3066H20.1118L20.0878 36.2826H20.0638H20.0398L20.0158 36.2586H19.9918H19.9678V36.2346H19.9438H19.9198H19.8958V36.2106H19.8718H19.8478H19.8238H19.7998V36.1866H19.7758H19.7518H19.7278H19.7038V36.1626H19.6798H19.6558ZM19.0078 36.1146V35.6106H19.0318H19.0558H19.1038H19.1278H19.1518H19.1758H19.1998H19.2238H19.2478H19.2718H19.2958L19.3198 35.6346H19.3438H19.3678H19.3918H19.4158H19.4398H19.4638H19.4878H19.5118H19.5358V35.6586H19.5598H19.5838H19.6078H19.6318H19.6558H19.6798L19.7038 35.6826H19.7278H19.7518L19.6558 36.1626H19.6318H19.6078H19.5838V36.1386H19.5598H19.5358H19.5118H19.4878H19.4638H19.4398V36.1146H19.4158H19.3918H19.3678H19.3438H19.3198H19.2958H19.2718H19.2478H19.2238H19.1998H19.1758H19.1518H19.1278H19.1038H19.0798H19.0558H19.0318H19.0078ZM18.0478 36.2826L17.8798 35.8266H17.9038L17.9278 35.8026L17.9758 35.7786H17.9998L18.0238 35.7546H18.0718H18.0958L18.1438 35.7306H18.1678L18.2158 35.7066H18.2398H18.2638L18.3118 35.6826H18.3358H18.3838L18.4078 35.6586H18.4558H18.4798H18.5278L18.5518 35.6346H18.5998H18.6478H18.6718H18.7198H18.7438L18.7918 35.6106H18.8158H18.8638H18.8878H18.9358H18.9838H19.0078V36.1146H18.9838H18.9598H18.9118H18.8878H18.8398H18.8158H18.7918H18.7438H18.7198H18.6958H18.6478L18.6238 36.1386H18.5998H18.5518H18.5278H18.5038L18.4798 36.1626H18.4318H18.4078L18.3838 36.1866H18.3598H18.3118H18.2878L18.2638 36.2106H18.2398L18.2158 36.2346H18.1918H18.1438L18.1198 36.2586H18.0958L18.0718 36.2826H18.0478ZM17.3278 36.7866L16.9678 36.4506L16.9918 36.4266L17.0158 36.4026L17.0398 36.3786L17.0638 36.3546L17.0878 36.3306L17.1118 36.3066L17.1358 36.2826L17.1598 36.2586L17.2078 36.2346L17.2318 36.2106L17.2558 36.1866L17.2798 36.1626H17.3038L17.3278 36.1386L17.3518 36.1146L17.3758 36.0906L17.4238 36.0666L17.4478 36.0426H17.4718L17.4958 36.0186L17.5198 35.9946L17.5678 35.9706H17.5918L17.6158 35.9466L17.6398 35.9226H17.6878L17.7118 35.8986L17.7358 35.8746H17.7838L17.8078 35.8506H17.8318L17.8798 35.8266L18.0478 36.2826H18.0238L17.9998 36.3066H17.9758L17.9518 36.3306H17.9038L17.8798 36.3546L17.8558 36.3786H17.8318L17.8078 36.4026H17.7838L17.7598 36.4266H17.7358L17.7118 36.4506L17.6878 36.4746H17.6638V36.4986L17.6398 36.5226H17.6158L17.5918 36.5466L17.5678 36.5706H17.5438L17.5198 36.5946L17.4958 36.6186L17.4718 36.6426H17.4478V36.6666L17.4238 36.6906L17.3998 36.7146H17.3758L17.3518 36.7386V36.7626L17.3278 36.7866ZM16.8718 37.5786L16.4158 37.4106V37.3866L16.4398 37.3626V37.3146L16.4638 37.2906L16.4878 37.2426V37.2186L16.5118 37.1706V37.1466L16.5358 37.1226L16.5598 37.0746V37.0506L16.5838 37.0266L16.6078 36.9786V36.9546L16.6318 36.9306L16.6558 36.9066L16.6798 36.8586V36.8346L16.7038 36.8106L16.7278 36.7866L16.7518 36.7386V36.7146L16.7758 36.6906L16.7998 36.6666L16.8238 36.6426L16.8478 36.6186L16.8718 36.5706L16.8958 36.5466L16.9198 36.5226V36.4986L16.9438 36.4746L16.9678 36.4506L17.3278 36.7866L17.3038 36.8106L17.2798 36.8346V36.8586H17.2558L17.2318 36.8826L17.2078 36.9066V36.9306L17.1838 36.9546L17.1598 36.9786V37.0026L17.1358 37.0266L17.1118 37.0506V37.0746L17.0878 37.0986L17.0638 37.1226V37.1466L17.0398 37.1706V37.1946L17.0158 37.2186V37.2426L16.9918 37.2666L16.9678 37.3146V37.3386L16.9438 37.3626V37.3866L16.9198 37.4106V37.4346L16.8958 37.4586V37.5066L16.8718 37.5306V37.5546V37.5786ZM16.7038 38.6826H16.2238V38.6346V38.5866V38.5386V38.5146V38.4666V38.4186V38.3706V38.3466L16.2478 38.2986V38.2506V38.2266V38.1786V38.1306V38.1066L16.2718 38.0586V38.0106V37.9866V37.9386L16.2958 37.8906V37.8666V37.8186L16.3198 37.7946V37.7466V37.7226L16.3438 37.6746V37.6266L16.3678 37.6026V37.5546V37.5306L16.3918 37.4826V37.4586L16.4158 37.4106L16.8718 37.5786L16.8478 37.6266V37.6506L16.8238 37.6746V37.6986V37.7466L16.7998 37.7706V37.7946V37.8426L16.7758 37.8666V37.8906V37.9386L16.7518 37.9626V37.9866V38.0346V38.0586L16.7278 38.0826V38.1306V38.1546V38.2026V38.2266V38.2746L16.7038 38.2986V38.3466V38.3706V38.4186V38.4426V38.4906V38.5146V38.5626V38.5866V38.6346V38.6826ZM16.8718 39.7866L16.4158 39.9546V39.9306L16.3918 39.8826V39.8586L16.3678 39.8106V39.7626L16.3438 39.7386V39.6906V39.6666L16.3198 39.6186V39.5946L16.2958 39.5466V39.4986V39.4746V39.4266L16.2718 39.3786V39.3546V39.3066L16.2478 39.2586V39.2346V39.1866V39.1386V39.0906V39.0666L16.2238 39.0186V38.9706V38.9226V38.8986V38.8506V38.8026V38.7546V38.7066V38.6826H16.7038V38.7066V38.7546V38.7786V38.8266V38.8746V38.8986V38.9466V38.9706V39.0186V39.0426L16.7278 39.0906V39.1386V39.1626V39.1866V39.2346L16.7518 39.2586V39.3066V39.3306V39.3786L16.7758 39.4026V39.4506V39.4746V39.4986L16.7998 39.5466V39.5706L16.8238 39.5946V39.6426V39.6666L16.8478 39.6906V39.7386V39.7626L16.8718 39.7866ZM17.3518 40.6026L17.0158 40.9386L16.9918 40.9146L16.9678 40.8906L16.9438 40.8666L16.9198 40.8426L16.8958 40.8186L16.8718 40.7946L16.8478 40.7466L16.8238 40.7226L16.7998 40.6986L16.7758 40.6746V40.6506L16.7518 40.6026L16.7278 40.5786L16.7038 40.5546L16.6798 40.5306V40.4826L16.6558 40.4586L16.6318 40.4346L16.6078 40.3866V40.3626L16.5838 40.3386L16.5598 40.2906V40.2666L16.5358 40.2426L16.5118 40.1946V40.1706L16.4878 40.1226L16.4638 40.0986V40.0506L16.4398 40.0266V40.0026L16.4158 39.9546L16.8718 39.7866V39.8106L16.8958 39.8586V39.8826L16.9198 39.9066V39.9306L16.9438 39.9546V40.0026L16.9678 40.0266V40.0506L16.9918 40.0746L17.0158 40.0986V40.1226L17.0398 40.1466V40.1946L17.0638 40.2186V40.2426L17.0878 40.2666L17.1118 40.2906V40.3146L17.1358 40.3386L17.1598 40.3626V40.3866L17.1838 40.4106L17.2078 40.4346L17.2318 40.4586V40.4826L17.2558 40.5066L17.2798 40.5306H17.3038V40.5546L17.3278 40.5786L17.3518 40.6026ZM18.0958 41.1066L17.9278 41.5626H17.9038L17.8558 41.5386H17.8318L17.8078 41.5146L17.7598 41.4906H17.7358L17.7118 41.4666L17.6638 41.4426H17.6398L17.6158 41.4186L17.5678 41.3946L17.5438 41.3706H17.5198L17.4958 41.3466L17.4478 41.3226L17.4238 41.2986L17.3998 41.2746H17.3758L17.3518 41.2506L17.3278 41.2266L17.2798 41.2026L17.2558 41.1786L17.2318 41.1546L17.2078 41.1306L17.1838 41.1066L17.1598 41.0826L17.1358 41.0586L17.1118 41.0346L17.0878 41.0106L17.0638 40.9866L17.0398 40.9626L17.0158 40.9386L17.3518 40.6026L17.3758 40.6266L17.3998 40.6506V40.6746H17.4238L17.4478 40.6986L17.4718 40.7226L17.4958 40.7466L17.5198 40.7706H17.5438V40.7946L17.5678 40.8186H17.5918L17.6158 40.8426L17.6398 40.8666L17.6638 40.8906H17.6878L17.7118 40.9146H17.7358L17.7598 40.9386L17.7838 40.9626H17.8078L17.8318 40.9866H17.8558L17.8798 41.0106L17.9038 41.0346H17.9278L17.9758 41.0586H17.9998L18.0238 41.0826H18.0478L18.0718 41.1066H18.0958ZM19.1278 41.2986V41.7786H19.0798H19.0318H19.0078H18.9598H18.9118H18.8878H18.8398L18.7918 41.7546H18.7678H18.7198H18.6958H18.6478H18.5998L18.5758 41.7306H18.5278H18.5038H18.4558L18.4318 41.7066H18.3838H18.3598L18.3118 41.6826H18.2878H18.2398L18.2158 41.6586H18.1678L18.1438 41.6346H18.0958L18.0718 41.6106H18.0238L17.9998 41.5866H17.9758L17.9278 41.5626L18.0958 41.1066L18.1198 41.1306H18.1678H18.1918L18.2158 41.1546H18.2398L18.2638 41.1786H18.3118H18.3358L18.3598 41.2026H18.3838H18.4318L18.4558 41.2266H18.4798H18.5038H18.5518L18.5758 41.2506H18.5998H18.6478H18.6718L18.7198 41.2746H18.7438H18.7678H18.8158H18.8398H18.8878H18.9118H18.9358H18.9838H19.0078L19.0558 41.2986H19.0798H19.1278ZM19.9198 41.1786L20.0398 41.6586H20.0158L19.9918 41.6826H19.9678H19.9438H19.9198L19.8958 41.7066H19.8718H19.8238H19.7998L19.7758 41.7306H19.7518H19.7278H19.7038H19.6558L19.6318 41.7546H19.6078H19.5838H19.5598H19.5118H19.4878H19.4638L19.4398 41.7786H19.3918H19.3678H19.3438H19.3198H19.2718H19.2478H19.2238H19.1758H19.1518H19.1278V41.2986H19.1518H19.1758H19.1998L19.2238 41.2746H19.2718H19.2958H19.3198H19.3438H19.3678H19.3918H19.4158H19.4398H19.4638H19.4878H19.5118L19.5598 41.2506H19.5838H19.6078H19.6318H19.6558H19.6798L19.7038 41.2266H19.7278H19.7518H19.7758L19.7998 41.2026H19.8238H19.8478H19.8718H19.8958L19.9198 41.1786ZM20.4718 41.1066H20.9518L20.8318 41.3226L20.8078 41.3466H20.7838L20.7598 41.3706H20.7358L20.7118 41.3946H20.6878L20.6638 41.4186H20.6398L20.6158 41.4426H20.5918L20.5678 41.4666H20.5438L20.5198 41.4906H20.4958L20.4718 41.5146H20.4478H20.4238L20.3998 41.5386H20.3758L20.3518 41.5626H20.3278H20.3038L20.2798 41.5866H20.2558L20.2318 41.6106H20.2078H20.1598L20.1358 41.6346H20.1118H20.0878L20.0638 41.6586H20.0398L19.9198 41.1786H19.9438H19.9678V41.1546H19.9918H20.0158H20.0398L20.0638 41.1306H20.0878H20.1118L20.1358 41.1066H20.1598H20.1838V41.0826H20.2078L20.2318 41.0586H20.2558H20.2798L20.3038 41.0346H20.3278H20.3518L20.3758 41.0106L20.3998 40.9866H20.4238L20.4478 40.9626H20.4718H20.4958L20.5198 40.9386H20.5438L20.5678 40.9146L20.5918 40.8906L20.4718 41.1066ZM20.9518 41.1066V41.2506L20.8318 41.3226L20.9518 41.1066ZM20.9518 39.5466V41.1066H20.4718V39.5466L20.7118 39.3066L20.9518 39.5466ZM20.7118 39.3066H20.9518V39.5466L20.7118 39.3066ZM19.6318 39.3066H20.7118V39.7866H19.6318V39.3066ZM19.3198 39.6666L19.6558 39.3066H19.6318V39.7866H19.6078H19.5838H19.5598H19.5358L19.5118 39.7626H19.4878H19.4638L19.4398 39.7386H19.4158L19.3918 39.7146H19.3678V39.6906H19.3438L19.3198 39.6666ZM19.1998 39.3546H19.6798L19.6558 39.3306V39.3066L19.3198 39.6666V39.6426H19.2958V39.6186H19.2718V39.5946L19.2478 39.5706V39.5466H19.2238V39.5226V39.4986V39.4746H19.1998V39.4506V39.4266V39.4026V39.3786V39.3546ZM19.6798 38.8026V39.3546H19.1998V38.8026L19.4398 38.5626L19.6798 38.8026ZM19.1998 38.8026V38.5626H19.4398L19.1998 38.8026ZM21.5518 39.0426H19.4398V38.5626H21.5518L21.7918 38.8026L21.5518 39.0426ZM21.5518 38.5626H21.7918V38.8026L21.5518 38.5626ZM27.4558 42.2346V41.4186H27.9358V42.2346L27.6958 42.4746L27.4558 42.2346ZM27.9358 42.2346V42.4746H27.6958L27.9358 42.2346ZM23.7598 41.9946H27.6958V42.4746H23.7598L23.5198 42.2346L23.7598 41.9946ZM23.7598 42.4746H23.5198V42.2346L23.7598 42.4746ZM23.9998 35.1066V42.2346H23.5198V35.1066L23.7598 34.8666L23.9998 35.1066ZM23.5198 35.1066V34.8666H23.7598L23.5198 35.1066ZM24.6958 35.3466H23.7598V34.8666H24.6958L24.9358 35.1066L24.6958 35.3466ZM24.6958 34.8666H24.9358V35.1066L24.6958 34.8666ZM24.4558 41.4186V35.1066H24.9358V41.4186L24.6958 41.6586L24.4558 41.4186ZM24.6958 41.6586H24.4558V41.4186L24.6958 41.6586ZM27.6958 41.6586H24.6958V41.1786H27.6958L27.9358 41.4186L27.6958 41.6586ZM27.6958 41.1786H27.9358V41.4186L27.6958 41.1786ZM35.5678 40.2186L35.1118 40.0506L35.1358 40.0266V39.9786L35.1598 39.9306V39.9066L35.1838 39.8586V39.8106L35.2078 39.7866V39.7386L35.2318 39.6906V39.6426L35.2558 39.6186V39.5706V39.5226L35.2798 39.4746V39.4506V39.4026L35.3038 39.3546V39.3066V39.2586V39.2346L35.3278 39.1866V39.1386V39.0906V39.0426V38.9946V38.9466V38.8986L35.3518 38.8506V38.8026V38.7546V38.7306V38.6826H35.8318L35.8078 38.7306V38.7786V38.8266V38.8746V38.9226V38.9706V39.0426V39.0906V39.1386L35.7838 39.1866V39.2346V39.2826V39.3306L35.7598 39.3786V39.4266V39.4746L35.7358 39.5226V39.5706V39.6186L35.7118 39.6666V39.7146L35.6878 39.7626V39.8106L35.6638 39.8586V39.9066L35.6398 39.9546V40.0026L35.6158 40.0506V40.0986L35.5918 40.1466L35.5678 40.1946V40.2186ZM34.7998 41.4666L34.4638 41.1306L34.4878 41.1066L34.5118 41.0586L34.5358 41.0346L34.5598 41.0106L34.5838 40.9866L34.6078 40.9626L34.6318 40.9146L34.6558 40.8906L34.6798 40.8666L34.7038 40.8186L34.7278 40.7946L34.7518 40.7706L34.7758 40.7226L34.7998 40.6986L34.8238 40.6746L34.8478 40.6266V40.6026L34.8718 40.5786L34.8958 40.5306L34.9198 40.5066L34.9438 40.4586V40.4346L34.9678 40.3866L34.9918 40.3626V40.3146L35.0158 40.2906L35.0398 40.2426L35.0638 40.2186V40.1706L35.0878 40.1226V40.0986L35.1118 40.0506L35.5678 40.2186L35.5438 40.2666L35.5198 40.3146L35.4958 40.3626V40.4106L35.4718 40.4346L35.4478 40.4826L35.4238 40.5306V40.5786L35.3998 40.6026L35.3758 40.6506L35.3518 40.6986L35.3278 40.7466L35.3038 40.7706L35.2798 40.8186L35.2558 40.8666L35.2318 40.8906L35.2078 40.9386L35.1838 40.9626L35.1598 41.0106L35.1358 41.0346L35.1118 41.0826L35.0878 41.1306L35.0638 41.1546L35.0398 41.2026L35.0158 41.2266L34.9918 41.2506L34.9678 41.2986L34.9198 41.3226L34.8958 41.3706L34.8718 41.3946L34.8478 41.4426L34.7998 41.4666ZM33.6478 42.2586L33.4798 41.8266L33.5038 41.8026L33.5518 41.7786H33.5758L33.6238 41.7546L33.6478 41.7306L33.6958 41.7066H33.7198L33.7438 41.6826L33.7918 41.6586L33.8158 41.6346L33.8638 41.6106H33.8878L33.9118 41.5866L33.9598 41.5626L33.9838 41.5386L34.0078 41.5146L34.0318 41.4906L34.0798 41.4666L34.1038 41.4426L34.1278 41.4186L34.1518 41.3946H34.1998L34.2238 41.3706L34.2478 41.3226L34.2718 41.2986L34.2958 41.2746L34.3438 41.2506L34.3678 41.2266L34.3918 41.2026L34.4158 41.1786L34.4398 41.1546L34.4638 41.1306L34.7998 41.4666L34.7758 41.4906L34.7518 41.5386L34.7278 41.5626L34.6798 41.5866L34.6558 41.6106L34.6318 41.6586L34.5838 41.6826L34.5598 41.7066L34.5118 41.7306L34.4878 41.7786L34.4638 41.8026L34.4158 41.8266L34.3918 41.8506L34.3438 41.8746L34.3198 41.8986L34.2718 41.9226L34.2478 41.9466L34.1998 41.9706L34.1758 41.9946L34.1278 42.0186L34.0798 42.0426L34.0558 42.0666L34.0078 42.0906L33.9838 42.1146L33.9358 42.1386L33.8878 42.1626L33.8638 42.1866H33.8158L33.7678 42.2106L33.7438 42.2346L33.6958 42.2586H33.6478ZM32.1598 42.5466V42.0666H32.2078H32.2558H32.3038H32.3518H32.3758H32.4238L32.4718 42.0426H32.5198H32.5678H32.5918H32.6398L32.6878 42.0186H32.7358H32.7598H32.8078L32.8558 41.9946H32.9038H32.9278L32.9758 41.9706H33.0238L33.0478 41.9466H33.0958H33.1198L33.1678 41.9226H33.2158L33.2398 41.8986H33.2878L33.3118 41.8746L33.3598 41.8506H33.4078L33.4318 41.8266H33.4798L33.6478 42.2586L33.5998 42.2826L33.5758 42.3066L33.5278 42.3306H33.4798L33.4318 42.3546L33.3838 42.3786H33.3358L33.3118 42.4026H33.2638L33.2158 42.4266H33.1678L33.1198 42.4506H33.0718L33.0238 42.4746H32.9758H32.9278L32.9038 42.4986H32.8558H32.8078L32.7598 42.5226H32.7118H32.6638H32.6158L32.5678 42.5466H32.5198H32.4718H32.4238H32.3758H32.3038H32.2558H32.2078H32.1598ZM30.6718 42.2586L30.8638 41.8266H30.9118L30.9358 41.8506H30.9838L31.0078 41.8746L31.0558 41.8986H31.0798L31.1278 41.9226H31.1518L31.1998 41.9466H31.2478H31.2718L31.3198 41.9706H31.3678L31.3918 41.9946H31.4398H31.4878L31.5118 42.0186H31.5598H31.6078H31.6318L31.6798 42.0426H31.7278H31.7758H31.8238H31.8478L31.8958 42.0666H31.9438H31.9918H32.0398H32.0638H32.1118H32.1598V42.5466H32.1118H32.0638H32.0158H31.9678H31.9198H31.8718H31.8238H31.7758L31.7278 42.5226H31.6798H31.6318H31.5838L31.5358 42.4986H31.4878H31.4398L31.3918 42.4746H31.3438H31.2958L31.2478 42.4506H31.1998L31.1518 42.4266H31.1278L31.0798 42.4026H31.0318L30.9838 42.3786H30.9358L30.8878 42.3546L30.8638 42.3306H30.8158L30.7678 42.3066L30.7198 42.2826L30.6718 42.2586ZM29.5198 41.4666L29.8558 41.1306L29.9038 41.1546L29.9278 41.1786L29.9518 41.2026L29.9758 41.2266L29.9998 41.2506L30.0238 41.2746L30.0478 41.2986L30.0958 41.3226L30.1198 41.3706L30.1438 41.3946H30.1678L30.1918 41.4186L30.2398 41.4426L30.2638 41.4666L30.2878 41.4906L30.3118 41.5146L30.3598 41.5386L30.3838 41.5626L30.4078 41.5866L30.4558 41.6106H30.4798L30.5038 41.6346L30.5518 41.6586L30.5758 41.6826L30.6238 41.7066H30.6478L30.6958 41.7306L30.7198 41.7546L30.7438 41.7786H30.7918L30.8158 41.8026L30.8638 41.8266L30.6718 42.2586H30.6478L30.5998 42.2346L30.5518 42.2106L30.5278 42.1866H30.4798L30.4318 42.1626L30.4078 42.1386L30.3598 42.1146L30.3118 42.0906L30.2878 42.0666L30.2398 42.0426L30.2158 42.0186L30.1678 41.9946L30.1198 41.9706L30.0958 41.9466L30.0478 41.9226L30.0238 41.8986L29.9758 41.8746L29.9518 41.8506L29.9038 41.8266L29.8798 41.8026L29.8558 41.7786L29.8078 41.7306L29.7838 41.7066L29.7358 41.6826L29.7118 41.6586L29.6878 41.6106L29.6398 41.5866L29.6158 41.5626L29.5918 41.5386L29.5438 41.4906L29.5198 41.4666ZM28.7758 40.2186L29.2318 40.0506V40.0986L29.2558 40.1226V40.1706L29.2798 40.2186L29.3038 40.2426V40.2906L29.3278 40.3146L29.3518 40.3626L29.3758 40.3866V40.4346L29.3998 40.4586L29.4238 40.5066L29.4478 40.5306V40.5786L29.4718 40.6026L29.4958 40.6266L29.5198 40.6746L29.5438 40.6986L29.5678 40.7226L29.5918 40.7706L29.6158 40.7946V40.8186L29.6398 40.8666L29.6638 40.8906L29.6878 40.9146L29.7118 40.9626L29.7358 40.9866L29.7598 41.0106L29.7838 41.0346L29.8078 41.0586L29.8318 41.1066L29.8558 41.1306L29.5198 41.4666L29.4958 41.4426L29.4718 41.3946L29.4238 41.3706L29.3998 41.3226L29.3758 41.2986L29.3518 41.2506L29.3278 41.2266L29.3038 41.2026L29.2798 41.1546L29.2318 41.1306L29.2078 41.0826L29.1838 41.0346L29.1598 41.0106L29.1358 40.9626L29.1118 40.9386L29.0878 40.8906L29.0638 40.8666L29.0398 40.8186L29.0158 40.7706V40.7466L28.9918 40.6986L28.9678 40.6506L28.9438 40.6026L28.9198 40.5786L28.8958 40.5306L28.8718 40.4826V40.4346L28.8478 40.4106L28.8238 40.3626L28.7998 40.3146V40.2666L28.7758 40.2186ZM28.5118 38.6826H28.9918V38.7306V38.7546V38.8026V38.8506V38.8986V38.9466V38.9946L29.0158 39.0426V39.0906V39.1386V39.1866V39.2346L29.0398 39.2586V39.3066V39.3546V39.4026L29.0638 39.4506V39.4746V39.5226L29.0878 39.5706V39.6186L29.1118 39.6426V39.6906V39.7386L29.1358 39.7866V39.8106L29.1598 39.8586V39.9066L29.1838 39.9306V39.9786L29.2078 40.0266L29.2318 40.0506L28.7758 40.2186L28.7518 40.1946V40.1466L28.7278 40.0986V40.0506L28.7038 40.0026L28.6798 39.9546V39.9066L28.6558 39.8586V39.8106L28.6318 39.7626V39.7146L28.6078 39.6666V39.6186V39.5706L28.5838 39.5226V39.4746V39.4266L28.5598 39.3786V39.3306V39.2826L28.5358 39.2346V39.1866V39.1386V39.0906V39.0426V38.9706L28.5118 38.9226V38.8746V38.8266V38.7786V38.7306V38.6826ZM28.7758 37.1226L29.2318 37.2906L29.2078 37.3146L29.1838 37.3626V37.4106L29.1598 37.4346V37.4826L29.1358 37.5306V37.5546L29.1118 37.6026V37.6506V37.6986L29.0878 37.7226V37.7706L29.0638 37.8186V37.8666V37.8906L29.0398 37.9386V37.9866V38.0346V38.0826L29.0158 38.1306V38.1546V38.2026V38.2506V38.2986L28.9918 38.3466V38.3946V38.4426V38.4906V38.5386V38.5866V38.6346V38.6826H28.5118V38.6106V38.5626V38.5146V38.4666V38.4186L28.5358 38.3706V38.2986V38.2506V38.2026V38.1546V38.1066L28.5598 38.0586V38.0106V37.9626L28.5838 37.9146V37.8666V37.8186L28.6078 37.7706V37.7226V37.6746L28.6318 37.6266V37.5786L28.6558 37.5306V37.4826L28.6798 37.4346V37.3866L28.7038 37.3386L28.7278 37.2906V37.2426L28.7518 37.1946V37.1466L28.7758 37.1226ZM29.5198 35.8746L29.8798 36.2106L29.8318 36.2346L29.8078 36.2826L29.7838 36.3066L29.7598 36.3306L29.7358 36.3546L29.7118 36.3786L29.6878 36.4266L29.6638 36.4506L29.6398 36.4746L29.6158 36.5226V36.5466L29.5918 36.5706L29.5678 36.6186L29.5438 36.6426L29.5198 36.6666L29.4958 36.7146L29.4718 36.7386L29.4478 36.7626V36.8106L29.4238 36.8346L29.3998 36.8826L29.3758 36.9066V36.9546L29.3518 36.9786L29.3278 37.0266L29.3038 37.0506V37.0986L29.2798 37.1226L29.2558 37.1706V37.2186L29.2318 37.2426V37.2906L28.7758 37.1226L28.7998 37.0746V37.0266L28.8238 36.9786L28.8478 36.9306L28.8718 36.9066V36.8586L28.8958 36.8106L28.9198 36.7626L28.9438 36.7386L28.9678 36.6906L28.9918 36.6426L29.0158 36.5946V36.5706L29.0398 36.5226L29.0638 36.4746L29.0878 36.4506L29.1118 36.4026L29.1358 36.3786L29.1598 36.3306L29.1838 36.3066L29.2078 36.2586L29.2318 36.2106L29.2798 36.1866L29.3038 36.1386L29.3278 36.1146L29.3518 36.0906L29.3758 36.0426L29.3998 36.0186L29.4238 35.9706L29.4718 35.9466L29.4958 35.8986L29.5198 35.8746ZM30.6718 35.0586L30.8638 35.5146L30.8398 35.5386L30.7918 35.5626H30.7678L30.7198 35.5866L30.6958 35.6106H30.6478L30.6238 35.6346L30.5758 35.6586L30.5518 35.6826H30.5278L30.4798 35.7066L30.4558 35.7306L30.4078 35.7546L30.3838 35.7786L30.3598 35.8026L30.3118 35.8266L30.2878 35.8506H30.2638L30.2398 35.8746L30.1918 35.8986L30.1678 35.9226L30.1438 35.9466L30.1198 35.9706L30.0958 35.9946L30.0478 36.0186L30.0238 36.0426L29.9998 36.0906L29.9758 36.1146L29.9518 36.1386L29.9278 36.1626L29.9038 36.1866L29.8798 36.2106L29.5198 35.8746L29.5438 35.8506L29.5918 35.8026L29.6158 35.7786L29.6398 35.7546L29.6878 35.7066L29.7118 35.6826L29.7358 35.6586L29.7838 35.6346L29.8078 35.6106L29.8558 35.5626L29.8798 35.5386L29.9038 35.5146L29.9518 35.4906L29.9758 35.4666L30.0238 35.4426L30.0478 35.4186L30.0958 35.3946L30.1198 35.3706L30.1678 35.3466L30.2158 35.3226L30.2398 35.2986L30.2878 35.2746L30.3118 35.2506L30.3598 35.2266L30.4078 35.2026L30.4318 35.1786L30.4798 35.1546L30.5278 35.1306H30.5518L30.5998 35.1066L30.6478 35.0826L30.6718 35.0586ZM32.1598 34.7706V35.2746H32.1118H32.0638H32.0398H31.9918H31.9438H31.8958H31.8478H31.8238L31.7758 35.2986H31.7278H31.6798H31.6558L31.6078 35.3226H31.5598H31.5118H31.4878L31.4398 35.3466H31.3918H31.3678L31.3198 35.3706H31.2718L31.2478 35.3946H31.1998L31.1518 35.4186H31.1278L31.0798 35.4426H31.0558L31.0078 35.4666H30.9838L30.9358 35.4906L30.9118 35.5146H30.8638L30.6718 35.0586H30.7198L30.7678 35.0346L30.8158 35.0106L30.8638 34.9866H30.8878L30.9358 34.9626H30.9838L31.0318 34.9386L31.0798 34.9146H31.1278L31.1518 34.8906H31.1998H31.2478L31.2958 34.8666H31.3438L31.3918 34.8426H31.4398H31.4878L31.5358 34.8186H31.5838H31.6318L31.6798 34.7946H31.7278H31.7758H31.8238H31.8718H31.9198L31.9678 34.7706H32.0158H32.0638H32.1118H32.1598ZM33.6478 35.0586L33.4798 35.5146H33.4318L33.4078 35.4906L33.3598 35.4666H33.3118L33.2878 35.4426H33.2398L33.2158 35.4186H33.1678L33.1198 35.3946H33.0958L33.0478 35.3706H33.0238L32.9758 35.3466H32.9278H32.9038L32.8558 35.3226H32.8078H32.7598H32.7358L32.6878 35.2986H32.6398H32.5918H32.5678L32.5198 35.2746H32.4718H32.4238H32.3758H32.3518H32.3038H32.2558H32.2078H32.1598V34.7706H32.2078H32.2558H32.3038H32.3758L32.4238 34.7946H32.4718H32.5198H32.5678H32.6158H32.6638L32.7118 34.8186H32.7598H32.8078L32.8558 34.8426H32.9038H32.9278L32.9758 34.8666H33.0238L33.0718 34.8906H33.1198H33.1678L33.2158 34.9146H33.2638L33.3118 34.9386L33.3598 34.9626H33.3838L33.4318 34.9866H33.4798L33.5278 35.0106L33.5758 35.0346L33.5998 35.0586H33.6478ZM34.7998 35.8746L34.4638 36.2106L34.4398 36.1866L34.4158 36.1626L34.3918 36.1386L34.3678 36.1146L34.3438 36.0906L34.2958 36.0666L34.2718 36.0186L34.2478 35.9946L34.2238 35.9706L34.1998 35.9466L34.1518 35.9226L34.1278 35.8986L34.1038 35.8746L34.0798 35.8506H34.0318L34.0078 35.8266L33.9838 35.8026L33.9598 35.7786L33.9118 35.7546L33.8878 35.7306L33.8398 35.7066H33.8158L33.7918 35.6826L33.7438 35.6586L33.7198 35.6346L33.6718 35.6106H33.6478L33.6238 35.5866L33.5758 35.5626H33.5518L33.5038 35.5386L33.4798 35.5146L33.6478 35.0586L33.6958 35.0826L33.7438 35.1066L33.7678 35.1306H33.8158L33.8638 35.1546L33.8878 35.1786L33.9358 35.2026L33.9838 35.2266L34.0078 35.2506L34.0558 35.2746L34.1038 35.2986L34.1278 35.3226L34.1758 35.3466L34.1998 35.3706L34.2478 35.3946L34.2718 35.4186L34.3198 35.4426L34.3438 35.4666L34.3918 35.4906L34.4158 35.5146L34.4638 35.5386L34.4878 35.5626L34.5118 35.6106L34.5598 35.6346L34.5838 35.6586L34.6318 35.6826L34.6558 35.7066L34.6798 35.7546L34.7278 35.7786L34.7518 35.8026L34.7758 35.8506L34.7998 35.8746ZM35.5678 37.1226L35.1118 37.2906L35.0878 37.2426V37.2186L35.0638 37.1706V37.1226L35.0398 37.0986L35.0158 37.0506L34.9918 37.0266V36.9786L34.9678 36.9546L34.9438 36.9066V36.8826L34.9198 36.8346L34.8958 36.8106L34.8718 36.7626L34.8478 36.7386V36.7146L34.8238 36.6666L34.7998 36.6426L34.7758 36.6186L34.7518 36.5706L34.7278 36.5466L34.7038 36.5226L34.6798 36.4746L34.6558 36.4506L34.6318 36.4266L34.6078 36.3786L34.5838 36.3546L34.5598 36.3306L34.5358 36.3066L34.5118 36.2826L34.4878 36.2346L34.4638 36.2106L34.7998 35.8746L34.8478 35.8986L34.8718 35.9466L34.8958 35.9706L34.9198 36.0186L34.9678 36.0426L34.9918 36.0906L35.0158 36.1146L35.0398 36.1386L35.0638 36.1866L35.0878 36.2106L35.1118 36.2586L35.1358 36.3066L35.1598 36.3306L35.1838 36.3786L35.2078 36.4026L35.2318 36.4506L35.2558 36.4746L35.2798 36.5226L35.3038 36.5706L35.3278 36.5946L35.3518 36.6426L35.3758 36.6906L35.3998 36.7386L35.4238 36.7626V36.8106L35.4478 36.8586L35.4718 36.9066L35.4958 36.9306V36.9786L35.5198 37.0266L35.5438 37.0746L35.5678 37.1226ZM35.8318 38.6826H35.3518V38.6346V38.5866V38.5386V38.4906L35.3278 38.4426V38.3946V38.3466V38.2986V38.2506V38.2026V38.1546L35.3038 38.1306V38.0826V38.0346V37.9866L35.2798 37.9386V37.8906V37.8666L35.2558 37.8186V37.7706V37.7226L35.2318 37.6986V37.6506L35.2078 37.6026V37.5786L35.1838 37.5306V37.4826L35.1598 37.4346V37.4106L35.1358 37.3626V37.3146L35.1118 37.2906L35.5678 37.1226V37.1466L35.5918 37.1946L35.6158 37.2426V37.2906L35.6398 37.3386V37.3866L35.6638 37.4346V37.4826L35.6878 37.5306V37.5786L35.7118 37.6266V37.6746L35.7358 37.7226V37.7706V37.8186L35.7598 37.8666V37.9146V37.9626L35.7838 38.0106V38.0586V38.1066V38.1546L35.8078 38.2026V38.2506V38.2986V38.3706V38.4186V38.4666V38.5146V38.5626V38.6106L35.8318 38.6826ZM34.2238 37.5786L34.6798 37.4106V37.4586L34.7038 37.4826V37.5306V37.5546L34.7278 37.6026V37.6266L34.7518 37.6746V37.6986V37.7466L34.7758 37.7706V37.8186V37.8666L34.7998 37.8906V37.9386V37.9626L34.8238 38.0106V38.0586V38.0826V38.1306V38.1786L34.8478 38.2026V38.2506V38.2986V38.3226V38.3706V38.4186V38.4666V38.4906V38.5386V38.5866V38.6346V38.6826H34.3918V38.6346V38.5866V38.5626L34.3678 38.5146V38.4906V38.4426V38.3946V38.3706V38.3226V38.2986V38.2506V38.2266L34.3438 38.1786V38.1546V38.1306V38.0826V38.0586L34.3198 38.0106V37.9866V37.9386V37.9146L34.2958 37.8906V37.8426V37.8186L34.2718 37.7946V37.7466V37.7226L34.2478 37.6986V37.6506V37.6266L34.2238 37.6026V37.5786ZM33.7678 36.7626L34.1278 36.4506L34.1518 36.4746L34.1758 36.4986L34.1998 36.5226L34.2238 36.5466L34.2478 36.5706V36.5946L34.2718 36.6186L34.2958 36.6666L34.3198 36.6906L34.3438 36.7146V36.7386L34.3678 36.7626L34.3918 36.7866L34.4158 36.8346V36.8586L34.4398 36.8826L34.4638 36.9066V36.9546L34.4878 36.9786L34.5118 37.0026V37.0506L34.5358 37.0746L34.5598 37.0986V37.1466L34.5838 37.1706V37.2186L34.6078 37.2426L34.6318 37.2666V37.3146L34.6558 37.3386V37.3866L34.6798 37.4106L34.2238 37.5786L34.1998 37.5306V37.5066V37.4826L34.1758 37.4586V37.4346L34.1518 37.3866V37.3626L34.1278 37.3386V37.3146L34.1038 37.2906V37.2666L34.0798 37.2426V37.2186L34.0558 37.1706L34.0318 37.1466V37.1226L34.0078 37.0986V37.0746L33.9838 37.0506V37.0266L33.9598 37.0026L33.9358 36.9786V36.9546H33.9118L33.8878 36.9306V36.9066L33.8638 36.8826L33.8398 36.8586V36.8346L33.8158 36.8106L33.7918 36.7866L33.7678 36.7626ZM33.0958 36.2826L33.2638 35.8266L33.3118 35.8506H33.3358L33.3598 35.8746H33.3838L33.4318 35.8986L33.4558 35.9226H33.4798L33.5038 35.9466L33.5518 35.9706H33.5758L33.5998 35.9946L33.6238 36.0186L33.6478 36.0426H33.6718L33.7198 36.0666L33.7438 36.0906L33.7678 36.1146L33.7918 36.1386H33.8158L33.8398 36.1626L33.8638 36.1866L33.8878 36.2106L33.9118 36.2346L33.9358 36.2586L33.9598 36.2826L33.9838 36.3066L34.0078 36.3306L34.0318 36.3546L34.0558 36.3786L34.0798 36.4026L34.1038 36.4266L34.1278 36.4506L33.7678 36.7626L33.7438 36.7386L33.7198 36.7146L33.6958 36.6906V36.6666H33.6718L33.6478 36.6426L33.6238 36.6186L33.5998 36.5946L33.5758 36.5706L33.5518 36.5466H33.5278L33.5038 36.5226L33.4798 36.4986H33.4558L33.4318 36.4746V36.4506H33.4078L33.3838 36.4266H33.3598L33.3358 36.4026L33.3118 36.3786H33.2878L33.2638 36.3546H33.2398L33.2158 36.3306H33.1918L33.1678 36.3066H33.1438L33.1198 36.2826H33.0958ZM32.1598 36.1146V35.6106H32.2078H32.2318H32.2798H32.3038H32.3518H32.3758L32.4238 35.6346H32.4478H32.4958H32.5438H32.5678H32.5918L32.6398 35.6586H32.6638H32.7118H32.7358L32.7838 35.6826H32.8078H32.8558L32.8798 35.7066H32.9038H32.9518L32.9758 35.7306H33.0238L33.0478 35.7546H33.0718H33.1198L33.1438 35.7786H33.1678L33.2158 35.8026H33.2398L33.2638 35.8266L33.0958 36.2826L33.0718 36.2586H33.0478H33.0238L32.9758 36.2346H32.9518L32.9278 36.2106H32.9038H32.8798L32.8558 36.1866H32.8318H32.8078L32.7598 36.1626H32.7358H32.7118H32.6878L32.6638 36.1386H32.6158H32.5918H32.5678H32.5438L32.5198 36.1146H32.4718H32.4478H32.4238H32.3758H32.3518H32.3278H32.3038H32.2558H32.2318H32.2078H32.1598ZM31.2478 36.2826L31.0558 35.8266L31.1038 35.8026H31.1278L31.1518 35.7786H31.1998L31.2238 35.7546H31.2478H31.2958L31.3198 35.7306H31.3438L31.3918 35.7066H31.4158H31.4638L31.4878 35.6826H31.5118H31.5598L31.5838 35.6586H31.6318H31.6558H31.7038L31.7278 35.6346H31.7758H31.7998H31.8478H31.8718H31.9198L31.9438 35.6106H31.9918H32.0158H32.0638H32.0878H32.1358H32.1598V36.1146H32.1358H32.1118H32.0638H32.0398H32.0158H31.9678H31.9438H31.9198H31.8958H31.8478H31.8238L31.7998 36.1386H31.7758H31.7278H31.7038H31.6798L31.6558 36.1626H31.6318H31.5838H31.5598L31.5358 36.1866H31.5118H31.4878L31.4638 36.2106H31.4398H31.3918L31.3678 36.2346H31.3438L31.3198 36.2586H31.2958H31.2718L31.2478 36.2826ZM30.5518 36.7626L30.2158 36.4506V36.4266L30.2398 36.4026L30.2638 36.3786L30.2878 36.3546L30.3118 36.3306L30.3358 36.3066L30.3598 36.2826L30.3838 36.2586L30.4078 36.2346L30.4318 36.2106L30.4558 36.1866L30.5038 36.1626L30.5278 36.1386H30.5518L30.5758 36.1146L30.5998 36.0906L30.6238 36.0666L30.6478 36.0426H30.6718L30.7198 36.0186L30.7438 35.9946L30.7678 35.9706H30.7918L30.8158 35.9466L30.8638 35.9226H30.8878L30.9118 35.8986L30.9358 35.8746H30.9598L31.0078 35.8506H31.0318L31.0558 35.8266L31.2478 36.2826H31.2238L31.1998 36.3066H31.1758L31.1518 36.3306H31.1278L31.1038 36.3546H31.0798L31.0558 36.3786H31.0318L31.0078 36.4026L30.9838 36.4266H30.9598L30.9358 36.4506H30.9118L30.8878 36.4746L30.8638 36.4986H30.8398L30.8158 36.5226V36.5466H30.7918L30.7678 36.5706L30.7438 36.5946H30.7198L30.6958 36.6186V36.6426L30.6718 36.6666H30.6478L30.6238 36.6906L30.5998 36.7146V36.7386L30.5758 36.7626H30.5518ZM30.1198 37.5786L29.6638 37.4106V37.3866L29.6878 37.3386V37.3146L29.7118 37.2666V37.2426L29.7358 37.1946L29.7598 37.1706V37.1466L29.7838 37.0986V37.0746L29.8078 37.0506L29.8318 37.0026V36.9786L29.8558 36.9546L29.8798 36.9066V36.8826L29.9038 36.8586L29.9278 36.8346L29.9518 36.7866V36.7626L29.9758 36.7386L29.9998 36.7146L30.0238 36.6906L30.0478 36.6426V36.6186L30.0718 36.5946L30.0958 36.5706L30.1198 36.5466L30.1438 36.5226L30.1678 36.4986L30.1918 36.4746L30.2158 36.4506L30.5518 36.7626L30.5278 36.7866V36.8106L30.5038 36.8346L30.4798 36.8586V36.8826L30.4558 36.9066L30.4318 36.9306V36.9546H30.4078L30.3838 36.9786V37.0026L30.3598 37.0266L30.3358 37.0506V37.0746L30.3118 37.0986V37.1226L30.2878 37.1466L30.2638 37.1946V37.2186L30.2398 37.2426V37.2666L30.2158 37.2906V37.3146L30.1918 37.3386V37.3626L30.1678 37.3866V37.4346L30.1438 37.4586V37.4826L30.1198 37.5066V37.5306V37.5786ZM29.9518 38.6826H29.4718V38.6346V38.5866V38.5386V38.4906V38.4666V38.4186V38.3706V38.3226L29.4958 38.2986V38.2506V38.2026V38.1786V38.1306V38.0826L29.5198 38.0586V38.0106V37.9626V37.9386L29.5438 37.8906V37.8666V37.8186L29.5678 37.7706V37.7466V37.6986L29.5918 37.6746V37.6266L29.6158 37.6026V37.5546V37.5306L29.6398 37.4826V37.4586L29.6638 37.4106L30.1198 37.5786L30.0958 37.6026V37.6266L30.0718 37.6506V37.6986V37.7226L30.0478 37.7466V37.7946V37.8186L30.0238 37.8426V37.8906V37.9146V37.9386L29.9998 37.9866V38.0106V38.0586V38.0826L29.9758 38.1306V38.1546V38.1786V38.2266V38.2506V38.2986L29.9518 38.3226V38.3706V38.3946V38.4426V38.4906V38.5146V38.5626V38.5866V38.6346V38.6826ZM30.1198 39.7626L29.6638 39.9306L29.6398 39.8826V39.8586L29.6158 39.8106V39.7866V39.7386L29.5918 39.7146V39.6666L29.5678 39.6426V39.5946V39.5706L29.5438 39.5226V39.4746V39.4506L29.5198 39.4026V39.3786V39.3306V39.2826L29.4958 39.2586V39.2106V39.1626V39.1386V39.0906V39.0426L29.4718 39.0186V38.9706V38.9226V38.8746V38.8506V38.8026V38.7546V38.7066V38.6826H29.9518V38.7066V38.7546V38.7786V38.8266V38.8746V38.8986V38.9466V38.9706V39.0186L29.9758 39.0426V39.0906V39.1146V39.1626V39.1866V39.2106L29.9998 39.2586V39.2826V39.3306V39.3546L30.0238 39.4026V39.4266V39.4506V39.4986L30.0478 39.5226V39.5466V39.5946L30.0718 39.6186V39.6426V39.6666L30.0958 39.7146V39.7386L30.1198 39.7626ZM30.5518 40.5546L30.2158 40.8906L30.1918 40.8666L30.1678 40.8426L30.1438 40.8186L30.1198 40.7946L30.0958 40.7706L30.0718 40.7466L30.0478 40.7226V40.6746L30.0238 40.6506L29.9998 40.6266L29.9758 40.6026L29.9518 40.5786V40.5306L29.9278 40.5066L29.9038 40.4826L29.8798 40.4586V40.4106L29.8558 40.3866L29.8318 40.3626V40.3386L29.8078 40.2906L29.7838 40.2666V40.2426L29.7598 40.1946V40.1706L29.7358 40.1226L29.7118 40.0986V40.0746L29.6878 40.0266V40.0026L29.6638 39.9546V39.9306L30.1198 39.7626V39.7866V39.8346L30.1438 39.8586V39.8826L30.1678 39.9066V39.9306L30.1918 39.9786V40.0026L30.2158 40.0266V40.0506L30.2398 40.0746V40.0986L30.2638 40.1226V40.1466L30.2878 40.1706L30.3118 40.1946V40.2186L30.3358 40.2426V40.2666L30.3598 40.2906L30.3838 40.3146V40.3386L30.4078 40.3626L30.4318 40.3866V40.4106L30.4558 40.4346L30.4798 40.4586V40.4826L30.5038 40.5066L30.5278 40.5306V40.5546H30.5518ZM31.2478 41.0586L31.0558 41.5146L31.0318 41.4906H31.0078L30.9838 41.4666L30.9358 41.4426H30.9118L30.8878 41.4186H30.8638L30.8158 41.3946L30.7918 41.3706L30.7678 41.3466H30.7438L30.7198 41.3226L30.6718 41.2986H30.6478L30.6238 41.2746L30.5998 41.2506L30.5758 41.2266L30.5518 41.2026L30.5278 41.1786H30.5038L30.4798 41.1546L30.4318 41.1306L30.4078 41.1066L30.3838 41.0826L30.3598 41.0586L30.3358 41.0346L30.3118 41.0106L30.2878 40.9866L30.2638 40.9626L30.2398 40.9386L30.2158 40.9146V40.8906L30.5518 40.5546L30.5758 40.5786L30.5998 40.6026V40.6266L30.6238 40.6506H30.6478L30.6718 40.6746L30.6958 40.6986V40.7226H30.7198L30.7438 40.7466L30.7678 40.7706H30.7918L30.8158 40.7946V40.8186H30.8398L30.8638 40.8426L30.8878 40.8666H30.9118L30.9358 40.8906L30.9598 40.9146H30.9838L31.0078 40.9386H31.0318L31.0558 40.9626H31.0798L31.1038 40.9866H31.1278L31.1518 41.0106H31.1758L31.1998 41.0346H31.2238L31.2478 41.0586ZM32.1598 41.2266V41.7306H32.1358L32.0878 41.7066H32.0638H32.0158H31.9918H31.9438H31.9198H31.8718H31.8478H31.7998L31.7758 41.6826H31.7278H31.7038H31.6558H31.6318L31.5838 41.6586H31.5598H31.5118L31.4878 41.6346H31.4638H31.4158L31.3918 41.6106H31.3438H31.3198L31.2958 41.5866H31.2478L31.2238 41.5626H31.1998L31.1518 41.5386H31.1278L31.1038 41.5146H31.0558L31.2478 41.0586H31.2718L31.2958 41.0826H31.3198H31.3438L31.3678 41.1066H31.3918L31.4398 41.1306H31.4638H31.4878L31.5118 41.1546H31.5358H31.5598H31.5838L31.6318 41.1786H31.6558H31.6798H31.7038L31.7278 41.2026H31.7758H31.7998H31.8238H31.8478H31.8958L31.9198 41.2266H31.9438H31.9678H32.0158H32.0398H32.0638H32.1118H32.1358H32.1598ZM33.0958 41.0586L33.2638 41.5146H33.2398L33.2158 41.5386H33.1678L33.1438 41.5626H33.1198L33.0718 41.5866H33.0478L33.0238 41.6106H32.9758H32.9518L32.9038 41.6346H32.8798H32.8558L32.8078 41.6586H32.7838H32.7358L32.7118 41.6826H32.6638H32.6398H32.5918H32.5678L32.5198 41.7066H32.4958H32.4478H32.4238H32.3758H32.3518H32.3038H32.2798H32.2318L32.2078 41.7306H32.1598V41.2266H32.2078H32.2318H32.2558H32.3038H32.3278H32.3518H32.3758H32.4238L32.4478 41.2026H32.4718H32.5198H32.5438H32.5678H32.5918L32.6158 41.1786H32.6638H32.6878H32.7118L32.7358 41.1546H32.7598H32.8078H32.8318L32.8558 41.1306H32.8798H32.9038L32.9278 41.1066H32.9518L32.9758 41.0826H33.0238H33.0478L33.0718 41.0586H33.0958ZM33.7678 40.5546L34.1278 40.8906L34.1038 40.9146L34.0798 40.9386L34.0558 40.9626L34.0318 40.9866L34.0078 41.0106L33.9838 41.0346L33.9598 41.0586L33.9358 41.0826L33.9118 41.1066L33.8878 41.1306L33.8638 41.1546L33.8398 41.1786H33.8158L33.7918 41.2026L33.7678 41.2266L33.7438 41.2506L33.7198 41.2746L33.6718 41.2986H33.6478L33.6238 41.3226L33.5998 41.3466H33.5758L33.5518 41.3706L33.5038 41.3946L33.4798 41.4186H33.4558L33.4318 41.4426H33.3838L33.3598 41.4666L33.3358 41.4906H33.3118L33.2638 41.5146L33.0958 41.0586L33.1198 41.0346H33.1438L33.1678 41.0106H33.1918L33.2158 40.9866H33.2398L33.2638 40.9626H33.2878L33.3118 40.9386H33.3358L33.3598 40.9146H33.3838L33.4078 40.8906L33.4318 40.8666L33.4558 40.8426L33.4798 40.8186H33.5038L33.5278 40.7946L33.5518 40.7706H33.5758L33.5998 40.7466V40.7226H33.6238L33.6478 40.6986L33.6718 40.6746L33.6958 40.6506L33.7198 40.6266L33.7438 40.6026L33.7678 40.5786V40.5546ZM33.7678 40.5546L33.8158 40.5306L33.7678 40.5546ZM34.2238 39.7626L34.6798 39.9306L34.6558 39.9546V40.0026L34.6318 40.0266V40.0746L34.6078 40.0986L34.5838 40.1226V40.1706L34.5598 40.1946V40.2426L34.5358 40.2666L34.5118 40.2906V40.3386L34.4878 40.3626L34.4638 40.3866V40.4106L34.4398 40.4586L34.4158 40.4826V40.5066L34.3918 40.5306L34.3678 40.5786L34.3438 40.6026V40.6266L34.3198 40.6506L34.2958 40.6746L34.2718 40.6986L34.2478 40.7466V40.7706L34.2238 40.7946L34.1998 40.8186L34.1758 40.8426L34.1518 40.8666L34.1278 40.8906L33.7678 40.5546H33.7918L33.8158 40.5306L33.8398 40.5066V40.4826L33.8638 40.4586L33.8878 40.4346V40.4106L33.9118 40.3866L33.9358 40.3626V40.3386L33.9598 40.3146L33.9838 40.2906V40.2666L34.0078 40.2426V40.2186L34.0318 40.1946V40.1706L34.0558 40.1466L34.0798 40.1226V40.0986L34.1038 40.0746V40.0506L34.1278 40.0266V40.0026L34.1518 39.9786V39.9306L34.1758 39.9066V39.8826L34.1998 39.8586V39.8346V39.7866L34.2238 39.7626ZM34.3918 38.6826H34.8478V38.7066V38.7546V38.8026V38.8506V38.8746V38.9226V38.9706V39.0186V39.0426V39.0906V39.1386L34.8238 39.1626V39.2106V39.2586V39.2826V39.3306L34.7998 39.3786V39.4026V39.4506L34.7758 39.4746V39.5226V39.5706L34.7518 39.5946V39.6426V39.6666L34.7278 39.7146V39.7386L34.7038 39.7866V39.8106V39.8586L34.6798 39.8826V39.9306L34.2238 39.7626V39.7386L34.2478 39.7146V39.6666V39.6426L34.2718 39.6186V39.5946V39.5466L34.2958 39.5226V39.4986V39.4506L34.3198 39.4266V39.4026V39.3546V39.3306L34.3438 39.2826V39.2586V39.2106V39.1866V39.1626L34.3678 39.1146V39.0906V39.0426V39.0186V38.9706V38.9466V38.8986V38.8746V38.8266L34.3918 38.7786V38.7546V38.7066V38.6826ZM40.7518 41.1306L40.8958 41.6106H40.8718H40.8478L40.8238 41.6346H40.7998H40.7758H40.7518L40.7278 41.6586H40.7038H40.6798H40.6558L40.6318 41.6826H40.6078H40.5838H40.5598H40.5358H40.5118H40.4878L40.4638 41.7066H40.4398H40.4158H40.3918H40.3678H40.3438H40.3198H40.2958H40.2478H40.2238H40.1998H40.1758H40.1518H40.1278V41.2266H40.1518H40.1758H40.1998H40.2238H40.2478H40.2718H40.2958H40.3198H40.3438L40.3678 41.2026H40.3918H40.4158H40.4398H40.4638H40.4878H40.5118H40.5358V41.1786H40.5598H40.5838H40.6078H40.6318H40.6558V41.1546H40.6798H40.7038H40.7278L40.7518 41.1306ZM41.1358 40.9146L41.4478 41.2986L41.4238 41.3226H41.3998V41.3466H41.3758L41.3518 41.3706L41.3278 41.3946H41.3038V41.4186H41.2798L41.2558 41.4426L41.2318 41.4666H41.2078L41.1838 41.4906H41.1598L41.1358 41.5146H41.1118L41.0878 41.5386H41.0638H41.0398V41.5626H41.0158H40.9918L40.9678 41.5866H40.9438H40.9198V41.6106H40.8958L40.7518 41.1306H40.7758H40.7998L40.8238 41.1066H40.8478H40.8718V41.0826H40.8958H40.9198V41.0586H40.9438H40.9678V41.0346H40.9918H41.0158V41.0106H41.0398V40.9866H41.0638L41.0878 40.9626L41.1118 40.9386H41.1358V40.9146ZM41.3518 40.6026L41.7838 40.7946V40.8186L41.7598 40.8426V40.8666L41.7358 40.8906V40.9146V40.9386H41.7118V40.9626V40.9866H41.6878V41.0106L41.6638 41.0346V41.0586L41.6398 41.0826L41.6158 41.1066V41.1306H41.5918V41.1546H41.5678V41.1786L41.5438 41.2026L41.5198 41.2266L41.4958 41.2506L41.4718 41.2746L41.4478 41.2986L41.1358 40.9146H41.1598V40.8906H41.1838V40.8666H41.2078V40.8426L41.2318 40.8186L41.2558 40.7946V40.7706H41.2798V40.7466V40.7226H41.3038V40.6986L41.3278 40.6746V40.6506V40.6266H41.3518V40.6026ZM41.4238 40.1706H41.9038V40.1946L41.8798 40.2186V40.2426V40.2666V40.2906V40.3146V40.3386V40.3626V40.3866V40.4106V40.4346V40.4586V40.4826H41.8558V40.5066V40.5306V40.5546V40.5786V40.6026L41.8318 40.6266V40.6506V40.6746L41.8078 40.6986V40.7226V40.7466V40.7706L41.7838 40.7946L41.3518 40.6026V40.5786V40.5546H41.3758V40.5306V40.5066V40.4826V40.4586H41.3998V40.4346V40.4106V40.3866V40.3626V40.3386V40.3146V40.2906H41.4238V40.2666V40.2426V40.2186V40.1946V40.1706ZM41.1118 39.4986L41.4238 39.1146L41.4478 39.1386L41.4718 39.1626L41.4958 39.1866L41.5198 39.2106L41.5678 39.2346L41.5918 39.2826L41.6158 39.3066V39.3306L41.6398 39.3546L41.6638 39.3786L41.6878 39.4266L41.7118 39.4506L41.7358 39.4746V39.5226L41.7598 39.5466L41.7838 39.5946V39.6186L41.8078 39.6426V39.6906L41.8318 39.7146V39.7626L41.8558 39.7866V39.8346V39.8586L41.8798 39.9066V39.9546V39.9786V40.0266V40.0506V40.0986V40.1466L41.9038 40.1706H41.4238V40.1466V40.1226V40.0986L41.3998 40.0746V40.0506V40.0266V39.9786V39.9546V39.9306L41.3758 39.9066V39.8826V39.8586L41.3518 39.8346V39.8106V39.7866L41.3278 39.7626V39.7386L41.3038 39.7146L41.2798 39.6906V39.6666L41.2558 39.6426L41.2318 39.6186V39.5946L41.2078 39.5706H41.1838V39.5466L41.1598 39.5226H41.1358L41.1118 39.4986ZM40.1278 39.2346V38.7306H40.1758H40.2238L40.2718 38.7546H40.3198H40.3678H40.4158H40.4638H40.5118L40.5598 38.7786H40.6078H40.6558H40.6798L40.7278 38.8026H40.7758L40.8238 38.8266H40.8478L40.8958 38.8506H40.9438L40.9678 38.8746H41.0158L41.0638 38.8986H41.0878L41.1358 38.9226L41.1598 38.9466L41.2078 38.9706H41.2318L41.2558 38.9946L41.3038 39.0186L41.3278 39.0426L41.3518 39.0666L41.3998 39.0906L41.4238 39.1146L41.1118 39.4986V39.4746H41.0878L41.0638 39.4506L41.0398 39.4266H41.0158L40.9918 39.4026H40.9678L40.9438 39.3786H40.9198L40.8958 39.3546H40.8718L40.8478 39.3306H40.8238H40.7998L40.7518 39.3066H40.7278L40.7038 39.2826H40.6798H40.6318H40.6078L40.5598 39.2586H40.5358H40.4878H40.4638L40.4158 39.2346H40.3678H40.3438H40.2958H40.2478H40.2238H40.1758H40.1278ZM38.6398 38.7306H40.1278V39.2346H38.6398L38.3998 38.9946L38.6398 38.7306ZM38.3998 38.9946V38.7306H38.6398L38.3998 38.9946ZM38.3998 41.4666V38.9946H38.8558V41.4666L38.6398 41.7066L38.3998 41.4666ZM38.6398 41.7066H38.3998V41.4666L38.6398 41.7066ZM40.1278 41.7066H38.6398V41.2266H40.1278V41.7066ZM38.3998 38.2986V35.8746H38.8558V38.2986L38.6398 38.5386L38.3998 38.2986ZM38.6398 38.5386H38.3998V38.2986L38.6398 38.5386ZM39.8638 38.5386H38.6398V38.0586H39.8638V38.5386ZM40.4878 37.9626L40.6318 38.4426H40.6078L40.5838 38.4666H40.5598H40.5358H40.5118L40.4878 38.4906H40.4638H40.4398H40.4158H40.3918L40.3678 38.5146H40.3438H40.3198H40.2958H40.2718H40.2478H40.2238L40.1998 38.5386H40.1758H40.1518H40.1278H40.1038H40.0798H40.0558H40.0318H39.9838H39.9598H39.9358H39.9118H39.8878H39.8638V38.0586H39.8878H39.9118H39.9358H39.9598H39.9838H40.0078H40.0318L40.0558 38.0346H40.0798H40.1038H40.1278H40.1518H40.1758H40.1998H40.2238H40.2478H40.2718V38.0106H40.2958H40.3198H40.3438H40.3678H40.3918L40.4158 37.9866H40.4398H40.4638L40.4878 37.9626ZM40.8958 37.7706L41.1838 38.1546L41.1598 38.1786H41.1358V38.2026H41.1118L41.0878 38.2266L41.0638 38.2506H41.0398V38.2746H41.0158H40.9918V38.2986H40.9678L40.9438 38.3226H40.9198L40.8958 38.3466H40.8718H40.8478V38.3706H40.8238H40.7998L40.7758 38.3946H40.7518L40.7278 38.4186H40.7038H40.6798L40.6558 38.4426H40.6318L40.4878 37.9626H40.5118H40.5358H40.5598V37.9386H40.5838H40.6078L40.6318 37.9146H40.6558L40.6798 37.8906H40.7038L40.7278 37.8666H40.7518H40.7758V37.8426H40.7998V37.8186H40.8238L40.8478 37.7946H40.8718V37.7706H40.8958ZM40.8958 37.7706H40.8718H40.8958ZM41.1118 37.4826L41.5438 37.6746L41.5198 37.6986V37.7226V37.7466H41.4958V37.7706V37.7946H41.4718V37.8186L41.4478 37.8426V37.8666L41.4238 37.8906L41.3998 37.9146V37.9386H41.3758V37.9626L41.3518 37.9866L41.3278 38.0106L41.3038 38.0346V38.0586H41.2798V38.0826H41.2558V38.1066H41.2318L41.2078 38.1306L41.1838 38.1546L40.8958 37.7706V37.7466H40.9198L40.9438 37.7226L40.9678 37.6986V37.6746H40.9918V37.6506H41.0158V37.6266L41.0398 37.6026V37.5786H41.0638V37.5546V37.5306H41.0878V37.5066V37.4826H41.1118ZM41.1838 37.0746H41.6398V37.0986V37.1226V37.1466V37.1706V37.1946V37.2186V37.2426V37.2666V37.2906V37.3146V37.3386L41.6158 37.3626V37.3866V37.4106V37.4346V37.4586L41.5918 37.4826V37.5066V37.5306V37.5546H41.5678V37.5786V37.6026V37.6266H41.5438V37.6506V37.6746L41.1118 37.4826V37.4586V37.4346V37.4106H41.1358V37.3866V37.3626V37.3386H41.1598V37.3146V37.2906V37.2666V37.2426V37.2186V37.1946V37.1706L41.1838 37.1466V37.1226V37.0986V37.0746ZM40.8958 36.3546L41.1838 35.9706L41.2078 35.9946L41.2558 36.0186L41.2798 36.0426L41.3038 36.0666L41.3278 36.0906L41.3518 36.1146L41.3758 36.1386L41.3998 36.1626L41.4238 36.2106L41.4478 36.2346V36.2586L41.4718 36.3066L41.4958 36.3306L41.5198 36.3786V36.4026L41.5438 36.4506V36.4746L41.5678 36.5226V36.5466L41.5918 36.5946V36.6186L41.6158 36.6666V36.7146V36.7386L41.6398 36.7866V36.8346V36.8586V36.9066V36.9546V37.0026V37.0266V37.0746H41.1838V37.0506V37.0026L41.1598 36.9786V36.9546V36.9066V36.8826V36.8586V36.8346V36.7866L41.1358 36.7626V36.7386V36.7146V36.6906L41.1118 36.6666V36.6426V36.6186L41.0878 36.5946V36.5706H41.0638V36.5466L41.0398 36.5226V36.4986L41.0158 36.4746L40.9918 36.4506V36.4266H40.9678V36.4026H40.9438V36.3786L40.9198 36.3546H40.8958ZM39.9118 36.1146V35.6106H39.9598H40.0078H40.0558L40.1038 35.6346H40.1518H40.1998H40.2478H40.2958H40.3438L40.3918 35.6586H40.4158H40.4638L40.5118 35.6826H40.5598H40.5838L40.6318 35.7066H40.6798L40.7038 35.7306H40.7518L40.7998 35.7546H40.8238L40.8718 35.7786H40.8958L40.9438 35.8026L40.9678 35.8266H40.9918L41.0398 35.8506L41.0638 35.8746L41.0878 35.8986L41.1358 35.9226L41.1598 35.9466L41.1838 35.9706L40.8958 36.3546L40.8718 36.3306L40.8478 36.3066H40.8238L40.7998 36.2826H40.7758L40.7518 36.2586H40.7278L40.7038 36.2346H40.6798L40.6558 36.2106H40.6318H40.6078L40.5838 36.1866H40.5598H40.5118L40.4878 36.1626H40.4638H40.4158L40.3918 36.1386H40.3438H40.3198H40.2718H40.2478L40.1998 36.1146H40.1518H40.1278H40.0798H40.0318H39.9838H39.9598H39.9118ZM38.6398 35.6106H39.9118V36.1146H38.6398L38.3998 35.8746L38.6398 35.6106ZM38.3998 35.8746V35.6106H38.6398L38.3998 35.8746ZM41.0638 34.9866L40.9438 35.4666H40.9198H40.8958L40.8718 35.4426H40.8238H40.7998L40.7758 35.4186H40.7518H40.7278H40.6798L40.6558 35.3946H40.6318H40.6078H40.5598H40.5358H40.5118L40.4638 35.3706H40.4398H40.4158H40.3678H40.3438H40.2958H40.2718L40.2238 35.3466H40.1998H40.1758H40.1278H40.1038H40.0558H40.0078H39.9838H39.9358H39.9118V34.8666H39.9358H39.9838H40.0318H40.0558H40.1038H40.1518H40.1758H40.2238H40.2718H40.2958H40.3438H40.3678L40.4158 34.8906H40.4638H40.4878H40.5358H40.5598H40.6078L40.6318 34.9146H40.6798H40.7038H40.7278L40.7758 34.9386H40.7998H40.8478H40.8718L40.8958 34.9626H40.9438H40.9678L41.0158 34.9866H41.0398H41.0638ZM41.9038 35.4186L41.6158 35.8026L41.5918 35.7786L41.5678 35.7546H41.5438V35.7306H41.5198L41.4958 35.7066H41.4718V35.6826H41.4478L41.4238 35.6586H41.3998L41.3758 35.6346L41.3518 35.6106H41.3278H41.3038L41.2798 35.5866H41.2558L41.2318 35.5626H41.2078H41.1838L41.1598 35.5386H41.1358L41.1118 35.5146H41.0878H41.0638L41.0398 35.4906H41.0158H40.9918L40.9678 35.4666H40.9438L41.0638 34.9866L41.0878 35.0106H41.1358L41.1598 35.0346H41.1838H41.2078L41.2558 35.0586H41.2798L41.3038 35.0826H41.3278L41.3518 35.1066H41.3998H41.4238L41.4478 35.1306H41.4718L41.4958 35.1546L41.5198 35.1786H41.5438L41.5678 35.2026H41.6158L41.6398 35.2266H41.6638L41.6878 35.2506L41.7118 35.2746H41.7358L41.7598 35.2986H41.7838L41.8078 35.3226L41.8318 35.3466H41.8558V35.3706L41.8798 35.3946L41.9038 35.4186ZM42.4078 36.0906L41.9758 36.2826V36.2586V36.2346H41.9518V36.2106V36.1866H41.9278V36.1626L41.9038 36.1386V36.1146L41.8798 36.0906V36.0666H41.8558V36.0426H41.8318V36.0186V35.9946H41.8078V35.9706L41.7838 35.9466L41.7598 35.9226H41.7358V35.8986H41.7118V35.8746L41.6878 35.8506L41.6638 35.8266H41.6398V35.8026H41.6158L41.9038 35.4186H41.9278L41.9518 35.4426L41.9758 35.4666H41.9998L42.0238 35.4906V35.5146L42.0478 35.5386L42.0718 35.5626H42.0958V35.5866L42.1198 35.6106L42.1438 35.6346L42.1678 35.6586V35.6826L42.1918 35.7066H42.2158V35.7306L42.2398 35.7546L42.2638 35.7786V35.8026L42.2878 35.8266V35.8506L42.3118 35.8746L42.3358 35.8986V35.9226L42.3598 35.9466V35.9706L42.3838 35.9946V36.0186L42.4078 36.0426V36.0666V36.0906ZM42.5758 36.9546H42.0958V36.9306V36.9066V36.8826V36.8586V36.8346V36.8106V36.7866V36.7626V36.7386V36.7146V36.6906L42.0718 36.6666V36.6426V36.6186V36.5946V36.5706V36.5466L42.0478 36.5226V36.4986V36.4746V36.4506L42.0238 36.4266V36.4026V36.3786L41.9998 36.3546V36.3306V36.3066H41.9758V36.2826L42.4078 36.0906L42.4318 36.1146V36.1386L42.4558 36.1626V36.1866V36.2106L42.4798 36.2346V36.2586V36.2826L42.5038 36.3306V36.3546V36.3786L42.5278 36.4026V36.4266V36.4506V36.4746V36.4986L42.5518 36.5466V36.5706V36.5946V36.6186V36.6426V36.6666L42.5758 36.7146V36.7386V36.7626V36.7866V36.8106V36.8586V36.8826V36.9066V36.9306V36.9546ZM42.4798 37.5546L42.0478 37.3866V37.3626V37.3386V37.3146L42.0718 37.2906V37.2666V37.2426V37.2186V37.1946H42.0958V37.1706V37.1466V37.1226V37.0986V37.0746V37.0506V37.0266V37.0026V36.9786V36.9546H42.5758V36.9786V37.0026V37.0266V37.0506V37.0746V37.0986V37.1226V37.1466V37.1706V37.1946H42.5518V37.2186V37.2426V37.2666V37.2906V37.3146V37.3386L42.5278 37.3626V37.3866V37.4106V37.4346L42.5038 37.4586V37.4826V37.5066V37.5306L42.4798 37.5546ZM42.2158 38.0826L41.8318 37.7706V37.7466H41.8558V37.7226H41.8798V37.6986L41.9038 37.6746V37.6506H41.9278V37.6266V37.6026H41.9518V37.5786L41.9758 37.5546V37.5306V37.5066H41.9998V37.4826V37.4586H42.0238V37.4346V37.4106L42.0478 37.3866L42.4798 37.5546V37.5786V37.6026L42.4558 37.6266V37.6506L42.4318 37.6746V37.6986L42.4078 37.7226V37.7466L42.3838 37.7706V37.7946L42.3598 37.8186V37.8426L42.3358 37.8666V37.8906L42.3118 37.9146V37.9386H42.2878V37.9626L42.2638 37.9866V38.0106L42.2398 38.0346L42.2158 38.0586V38.0826ZM41.7598 38.4906L41.4958 38.0826H41.5198V38.0586H41.5438V38.0346H41.5678L41.5918 38.0106L41.6158 37.9866H41.6398V37.9626H41.6638V37.9386H41.6878V37.9146H41.7118V37.8906H41.7358V37.8666H41.7598V37.8426H41.7838V37.8186H41.8078V37.7946L41.8318 37.7706L42.2158 38.0826H42.1918V38.1066H42.1678V38.1306L42.1438 38.1546L42.1198 38.1786L42.0958 38.2026L42.0718 38.2266L42.0478 38.2506L42.0238 38.2746V38.2986H41.9998L41.9758 38.3226L41.9518 38.3466L41.9278 38.3706H41.9038V38.3946H41.8798L41.8558 38.4186L41.8318 38.4426H41.8078V38.4666H41.7838L41.7598 38.4906ZM41.0878 38.3226L40.9918 38.8026L40.9678 38.3226H40.9918H41.0158H41.0398V38.2986H41.0638H41.0878H41.1118V38.2746H41.1358H41.1598V38.2506H41.1838H41.2078H41.2318V38.2266H41.2558H41.2798V38.2026H41.3038H41.3278V38.1786H41.3518L41.3758 38.1546H41.3998L41.4238 38.1306L41.4478 38.1066H41.4718L41.4958 38.0826L41.7598 38.4906L41.7358 38.5146H41.7118L41.6878 38.5386L41.6638 38.5626H41.6398L41.6158 38.5866L41.5918 38.6106H41.5678H41.5438L41.5198 38.6346L41.4958 38.6586H41.4718H41.4478L41.4238 38.6826L41.3998 38.7066H41.3758H41.3518L41.3278 38.7306H41.3038H41.2798L41.2558 38.7546H41.2318L41.2078 38.7786H41.1838H41.1598L41.1358 38.8026H41.1118L41.0878 38.3226ZM42.3598 38.9466L42.0238 39.3066L41.9998 39.2826L41.9758 39.2586L41.9518 39.2346L41.9278 39.2106L41.9038 39.1866H41.8798L41.8558 39.1626L41.8318 39.1386L41.8078 39.1146H41.7838L41.7598 39.0906L41.7358 39.0666L41.7118 39.0426H41.6638L41.6398 39.0186L41.6158 38.9946H41.5918L41.5438 38.9706H41.5198L41.4718 38.9466L41.4478 38.9226H41.3998L41.3758 38.8986H41.3278L41.3038 38.8746H41.2558L41.2078 38.8506H41.1838L41.1358 38.8266H41.0878H41.0398L40.9918 38.8026L41.0878 38.3226L41.1358 38.3466H41.1838H41.2318L41.2798 38.3706L41.3278 38.3946H41.3758L41.4238 38.4186H41.4718L41.5198 38.4426H41.5678L41.6158 38.4666L41.6398 38.4906L41.6878 38.5146H41.7358L41.7838 38.5386L41.8078 38.5626L41.8558 38.5866L41.9038 38.6106H41.9278L41.9758 38.6346L41.9998 38.6586L42.0478 38.6826L42.0718 38.7066L42.1198 38.7306L42.1438 38.7546L42.1918 38.7786L42.2158 38.8026L42.2398 38.8506L42.2878 38.8746L42.3118 38.8986L42.3358 38.9226L42.3598 38.9466ZM42.8158 40.1946H42.3358V40.1706V40.1226V40.0986V40.0506V40.0266V40.0026L42.3118 39.9546V39.9306V39.9066V39.8586V39.8346L42.2878 39.8106V39.7626V39.7386L42.2638 39.7146V39.6906L42.2398 39.6666V39.6426L42.2158 39.5946V39.5706L42.1918 39.5466V39.5226L42.1678 39.4986V39.4746L42.1438 39.4506L42.1198 39.4266V39.4026L42.0958 39.3786L42.0718 39.3546V39.3306L42.0478 39.3066H42.0238L42.3598 38.9466L42.3838 38.9946L42.4078 39.0186L42.4558 39.0426L42.4798 39.0906L42.5038 39.1146L42.5278 39.1386L42.5518 39.1866V39.2106L42.5758 39.2586L42.5998 39.2826L42.6238 39.3306L42.6478 39.3546V39.4026L42.6718 39.4506L42.6958 39.4746V39.5226L42.7198 39.5466V39.5946L42.7438 39.6426V39.6666L42.7678 39.7146V39.7626L42.7918 39.8106V39.8586V39.8826V39.9306L42.8158 39.9786V40.0266V40.0746V40.1226V40.1466V40.1946ZM42.6238 41.1306L42.1918 40.9386L42.2158 40.9146V40.8906V40.8666L42.2398 40.8426V40.8186L42.2638 40.7946V40.7706V40.7466V40.7226L42.2878 40.6986V40.6746V40.6506V40.6266V40.6026L42.3118 40.5786V40.5546V40.5306V40.5066V40.4826L42.3358 40.4586V40.4346V40.4106V40.3866V40.3626V40.3386V40.3146V40.2906V40.2666V40.2186V40.1946H42.8158V40.2426V40.2666V40.2906V40.3386V40.3626V40.3866V40.4106V40.4586L42.7918 40.4826V40.5066V40.5306V40.5786V40.6026V40.6266L42.7678 40.6506V40.6746V40.7226V40.7466L42.7438 40.7706V40.7946V40.8186L42.7198 40.8666V40.8906V40.9146L42.6958 40.9386V40.9626V40.9866L42.6718 41.0346V41.0586L42.6478 41.0826V41.1066L42.6238 41.1306ZM42.0958 41.8506L41.7838 41.4906L41.8078 41.4666H41.8318V41.4426L41.8558 41.4186H41.8798V41.3946L41.9038 41.3706H41.9278V41.3466L41.9518 41.3226L41.9758 41.2986L41.9998 41.2746L42.0238 41.2506V41.2266L42.0478 41.2026L42.0718 41.1786V41.1546L42.0958 41.1306L42.1198 41.1066V41.0826V41.0586H42.1438V41.0346L42.1678 41.0106V40.9866L42.1918 40.9626V40.9386L42.6238 41.1306V41.1546L42.5998 41.1786V41.2026L42.5758 41.2266V41.2506L42.5518 41.2746V41.3226L42.5278 41.3466V41.3706L42.5038 41.3946L42.4798 41.4186V41.4426L42.4558 41.4666L42.4318 41.4906V41.5146H42.4078L42.3838 41.5386L42.3598 41.5626V41.5866L42.3358 41.6106L42.3118 41.6346L42.2878 41.6586V41.6826L42.2638 41.7066L42.2398 41.7306L42.2158 41.7546H42.1918V41.7786L42.1678 41.8026L42.1438 41.8266L42.1198 41.8506H42.0958ZM41.2558 42.3306L41.1118 41.8506H41.1358L41.1598 41.8266H41.1838H41.2078L41.2318 41.8026H41.2558L41.2798 41.7786H41.3038H41.3278L41.3518 41.7546H41.3758L41.3998 41.7306H41.4238L41.4478 41.7066H41.4718L41.4958 41.6826L41.5198 41.6586H41.5438L41.5678 41.6346H41.5918L41.6158 41.6106L41.6398 41.5866H41.6638L41.6878 41.5626H41.7118V41.5386H41.7358L41.7598 41.5146L41.7838 41.4906L42.0958 41.8506L42.0718 41.8746L42.0478 41.8986L42.0238 41.9226L41.9998 41.9466H41.9758L41.9518 41.9706L41.9278 41.9946H41.9038L41.8798 42.0186L41.8558 42.0426H41.8318L41.8078 42.0666L41.7838 42.0906H41.7598L41.7358 42.1146L41.7118 42.1386H41.6878L41.6398 42.1626H41.6158L41.5918 42.1866H41.5678L41.5438 42.2106H41.5198L41.4958 42.2346H41.4478L41.4238 42.2586H41.3998L41.3758 42.2826H41.3278L41.3038 42.3066H41.2798L41.2558 42.3306ZM40.1518 42.4746V41.9946H40.1758H40.1998H40.2478H40.2718H40.3198H40.3438H40.3678L40.4158 41.9706H40.4398H40.4638H40.5118H40.5358H40.5598H40.6078H40.6318L40.6558 41.9466H40.6798H40.7278H40.7518H40.7758L40.7998 41.9226H40.8238H40.8718H40.8958L40.9198 41.8986H40.9438H40.9678L40.9918 41.8746H41.0158H41.0638L41.0878 41.8506H41.1118L41.2558 42.3306H41.2078H41.1838L41.1598 42.3546H41.1118L41.0878 42.3786H41.0638H41.0158L40.9918 42.4026H40.9678H40.9198H40.8958L40.8478 42.4266H40.8238H40.7998H40.7518L40.7278 42.4506H40.6798H40.6558H40.6078H40.5838H40.5358L40.5118 42.4746H40.4638H40.4398H40.3918H40.3678H40.3198H40.2958H40.2478H40.2238H40.1758H40.1518ZM37.7038 41.9946H40.1518V42.4746H37.7038L37.4638 42.2346L37.7038 41.9946ZM37.7038 42.4746H37.4638V42.2346L37.7038 42.4746ZM37.9438 35.1066V42.2346H37.4638V35.1066L37.7038 34.8666L37.9438 35.1066ZM37.4638 35.1066V34.8666H37.7038L37.4638 35.1066ZM39.9118 35.3466H37.7038V34.8666H39.9118V35.3466ZM47.4478 36.5946L48.5278 39.4986L48.0718 39.6666L46.9918 36.7626L47.4478 36.5946ZM46.8958 36.4506L47.3278 36.3066L47.3518 36.3306V36.3546V36.3786H47.3758V36.4026V36.4266V36.4506L47.3998 36.4746V36.4986V36.5226L47.4238 36.5466V36.5706V36.5946H47.4478L46.9918 36.7626V36.7386H46.9678V36.7146V36.6906V36.6666H46.9438V36.6426V36.6186L46.9198 36.5946V36.5706V36.5466V36.5226H46.8958V36.4986V36.4746V36.4506ZM47.2318 36.0906L46.7758 35.9466H47.2318L47.2558 35.9706V35.9946V36.0186V36.0426L47.2798 36.0666V36.0906V36.1146V36.1386H47.3038V36.1626V36.1866V36.2106V36.2346H47.3278V36.2586V36.2826V36.3066L46.8958 36.4506H46.8718V36.4266V36.4026V36.3786H46.8478V36.3546V36.3306V36.3066L46.8238 36.2826V36.2586V36.2346V36.2106L46.7998 36.1866V36.1626V36.1386V36.1146H46.7758V36.0906H47.2318ZM47.0158 36.7866L46.5838 36.5946V36.5706L46.6078 36.5466V36.5226V36.4986L46.6318 36.4746V36.4506L46.6558 36.4266V36.4026V36.3786L46.6798 36.3546V36.3306V36.3066V36.2826H46.7038V36.2586V36.2346V36.2106L46.7278 36.1866V36.1626V36.1386V36.1146L46.7518 36.0906V36.0666V36.0426V36.0186L46.7758 35.9946V35.9706V35.9466L47.2318 36.0906V36.1146V36.1386V36.1626L47.2078 36.1866V36.2106V36.2346L47.1838 36.2586V36.2826V36.3066V36.3306L47.1598 36.3546V36.3786V36.4026V36.4266L47.1358 36.4506V36.4746L47.1118 36.4986V36.5226V36.5466V36.5706L47.0878 36.5946V36.6186V36.6426H47.0638V36.6666V36.6906V36.7146L47.0398 36.7386V36.7626L47.0158 36.7866ZM45.5038 39.4986L46.5838 36.5946L47.0158 36.7866L45.9358 39.6666L45.7198 39.8346L45.5038 39.4986ZM45.7198 39.8346H45.3598L45.5038 39.4986L45.7198 39.8346ZM48.3118 39.8346H45.7198V39.3306H48.3118L48.5278 39.4986L48.3118 39.8346ZM48.5278 39.4986L48.6478 39.8346H48.3118L48.5278 39.4986ZM49.5358 41.9946H50.2558V42.4746H49.5358V41.9946ZM49.1758 42.3546L49.4638 41.9706H49.4878V41.9946H49.5118H49.5358V42.4746H49.5118H49.4878H49.4638H49.4398H49.4158H49.3918H49.3678V42.4506H49.3438H49.3198L49.2958 42.4266H49.2718H49.2478V42.4026H49.2238L49.1998 42.3786H49.1758V42.3546ZM48.9838 42.0906L49.4398 41.9226V41.9466H49.4638V41.9706L49.1758 42.3546H49.1518V42.3306H49.1278V42.3066H49.1038V42.2826H49.0798V42.2586L49.0558 42.2346V42.2106H49.0318V42.1866V42.1626H49.0078V42.1386V42.1146H48.9838V42.0906ZM48.7918 40.1946L49.4398 41.9226L48.9838 42.0906L48.3358 40.3626L48.5518 40.0506L48.7918 40.1946ZM48.5518 40.0506H48.7198L48.7918 40.1946L48.5518 40.0506ZM45.4558 40.0506H48.5518V40.5306H45.4558L45.2398 40.1946L45.4558 40.0506ZM45.2398 40.1946L45.2878 40.0506H45.4558L45.2398 40.1946ZM44.5918 41.9226L45.2398 40.1946L45.6718 40.3626L45.0238 42.0906L44.5918 41.9226ZM44.8558 42.3546L44.5438 41.9706H44.5678V41.9466V41.9226H44.5918L45.0238 42.0906V42.1146V42.1386H44.9998V42.1626V42.1866H44.9758V42.2106V42.2346H44.9518V42.2586H44.9278V42.2826H44.9038V42.3066L44.8798 42.3306H44.8558V42.3546ZM44.4958 42.4746V41.9946H44.5198H44.5438V41.9706L44.8558 42.3546H44.8318V42.3786H44.8078V42.4026H44.7838H44.7598V42.4266H44.7358H44.7118V42.4506H44.6878H44.6638H44.6398V42.4746H44.6158H44.5918H44.5678H44.5438H44.5198H44.4958ZM43.7758 41.9946H44.4958V42.4746H43.7758L43.5358 42.1386L43.7758 41.9946ZM43.7758 42.4746H43.4158L43.5358 42.1386L43.7758 42.4746ZM46.7518 35.2026L43.9918 42.3306L43.5358 42.1386L46.3198 35.0106L46.5358 34.8666L46.7518 35.2026ZM46.3198 35.0106L46.3678 34.8666H46.5358L46.3198 35.0106ZM47.4958 35.3466H46.5358V34.8666H47.4958L47.7118 35.0106L47.4958 35.3466ZM47.4958 34.8666H47.6398L47.7118 35.0106L47.4958 34.8666ZM50.0398 42.3306L47.2558 35.2026L47.7118 35.0106L50.4718 42.1386L50.2558 42.4746L50.0398 42.3306ZM50.4718 42.1386L50.6158 42.4746H50.2558L50.4718 42.1386ZM55.6318 42.2346V41.4186H56.1118V42.2346L55.8718 42.4746L55.6318 42.2346ZM56.1118 42.2346V42.4746H55.8718L56.1118 42.2346ZM51.9358 41.9946H55.8718V42.4746H51.9358L51.6958 42.2346L51.9358 41.9946ZM51.9358 42.4746H51.6958V42.2346L51.9358 42.4746ZM52.1758 35.1066V42.2346H51.6958V35.1066L51.9358 34.8666L52.1758 35.1066ZM51.6958 35.1066V34.8666H51.9358L51.6958 35.1066ZM52.8718 35.3466H51.9358V34.8666H52.8718L53.1118 35.1066L52.8718 35.3466ZM52.8718 34.8666H53.1118V35.1066L52.8718 34.8666ZM52.6318 41.4186V35.1066H53.1118V41.4186L52.8718 41.6586L52.6318 41.4186ZM52.8718 41.6586H52.6318V41.4186L52.8718 41.6586ZM55.8718 41.6586H52.8718V41.1786H55.8718L56.1118 41.4186L55.8718 41.6586ZM55.8718 41.1786H56.1118V41.4186L55.8718 41.1786Z" fill="#3E704D"/>
<path d="M18.1441 31.072H21.0241L21.6001 34.264H23.7841L20.6641 16.744H18.5041L15.4081 34.264H17.5921L18.1441 31.072ZM19.5841 22.888L20.6641 28.912H18.5041L19.5841 22.888ZM29.4961 34.264C31.1521 34.264 32.4001 33.424 33.0241 31.912C33.4801 30.832 33.4801 29.728 33.4801 29.344C33.4801 28.96 33.4801 27.856 33.0241 26.776C32.8321 26.272 32.5441 25.84 32.2081 25.504C32.5441 25.168 32.8321 24.736 33.0241 24.232C33.4801 23.152 33.4801 22.024 33.4801 21.664C33.4801 21.28 33.4801 20.176 33.0241 19.072C32.4001 17.584 31.1521 16.744 29.4961 16.744H25.4881V34.264H29.4961ZM27.6241 26.584H29.4961C30.2881 26.584 30.7681 26.872 31.0561 27.592C31.3201 28.288 31.3201 29.08 31.3201 29.344C31.3201 29.608 31.3201 30.4 31.0561 31.096C30.7681 31.816 30.2881 32.128 29.4961 32.128H27.6241V26.584ZM27.6241 18.88H29.4961C30.2881 18.88 30.7681 19.192 31.0561 19.912C31.3201 20.608 31.3201 21.4 31.3201 21.664C31.3201 21.928 31.3201 22.72 31.0561 23.416C30.7681 24.136 30.2881 24.424 29.4961 24.424H27.6241V18.88ZM46.0561 30.64C46.7281 29.008 47.0881 26.872 47.1361 24.304H45.0001C44.9521 26.032 44.7601 27.52 44.4241 28.744C43.2481 27.064 42.2401 25.576 41.4241 24.304C42.0001 23.872 42.5521 23.44 43.0081 22.936C43.8001 22.024 44.2081 21.016 44.2081 19.864C44.2081 19.504 44.1361 18.592 43.5361 17.752C43.0561 17.104 42.1921 16.384 40.5601 16.384C38.9281 16.384 38.0641 17.128 37.6081 17.752C37.0081 18.592 36.9601 19.504 36.9601 19.864C36.9601 20.416 37.1521 21.328 38.5681 23.704C37.9201 24.208 37.2481 24.76 36.7201 25.432C35.7361 26.656 35.2561 28.024 35.2561 29.656C35.2561 30.136 35.3281 31.36 36.0961 32.488C36.7201 33.448 38.0161 34.624 40.5601 34.624C41.8321 34.624 43.3921 34.264 44.7121 32.824C45.1441 33.448 45.6001 34.048 46.0081 34.624H48.6721C47.8801 33.544 46.9201 32.272 45.9361 30.856C45.9841 30.784 46.0081 30.712 46.0561 30.64ZM39.3601 19C39.4561 18.88 39.6961 18.52 40.5601 18.52C41.4241 18.52 41.7121 18.88 41.7841 19C41.9761 19.288 42.0481 19.624 42.0481 19.864C42.0481 20.944 41.4241 21.616 40.3201 22.456C39.1921 20.488 39.1201 19.912 39.1201 19.864C39.1201 19.624 39.1921 19.264 39.3601 19ZM40.5601 32.464C39.2641 32.464 38.4001 32.104 37.8721 31.312C37.4401 30.616 37.4161 29.8 37.4161 29.656C37.4161 27.64 38.4001 26.56 39.6961 25.552C40.6081 26.992 41.7601 28.696 43.1041 30.592C43.2001 30.736 43.3201 30.88 43.3921 31.024C42.6961 32.008 41.7841 32.464 40.5601 32.464ZM56.9281 18.88V16.744H50.7361V34.264H52.8721V26.584H56.9281V24.424H52.8721V18.88H56.9281Z" fill="#3E704D"/>
</svg>
