<svg width="653" height="719" viewBox="0 0 653 719" fill="none" xmlns="http://www.w3.org/2000/svg">
<path fill-rule="evenodd" clip-rule="evenodd" d="M269.083 76.8837C354.886 69.5477 444.396 -16.9043 516.62 29.7454C587.894 75.7808 548.901 189.474 570.119 271.321C589.422 345.787 652.062 411.858 635.127 486.892C617.766 563.815 553.417 625.663 482.291 660.466C416.9 692.463 341.826 661.598 269.083 666.005C189.29 670.839 100.094 735.185 36.1295 687.497C-28.0214 639.67 17.6137 533.678 -9.20292 458.533C-37.2794 379.857 -135.573 324.462 -122.874 241.939C-110.196 159.556 -26.515 102.079 50.6496 69.5849C119.419 40.6257 194.678 83.2452 269.083 76.8837Z" fill="#3E704D"/>
<path fill-rule="evenodd" clip-rule="evenodd" d="M273.401 64.3579C361.455 56.7238 453.314 -33.2415 527.435 15.304C600.579 63.2102 560.563 181.523 582.337 266.697C602.148 344.189 666.431 412.945 649.052 491.028C631.235 571.078 565.197 635.438 492.204 671.656C425.097 704.954 348.052 672.834 273.401 677.42C191.513 682.451 99.9762 749.412 34.3323 699.785C-31.5023 650.015 15.3306 539.716 -12.1899 461.517C-41.0033 379.644 -141.876 321.998 -128.844 236.12C-115.834 150.39 -29.9563 90.5774 49.2336 56.7625C119.808 26.6264 197.042 70.9779 273.401 64.3579Z" stroke="url(#paint0_linear)" stroke-linecap="square" stroke-dasharray="12 12"/>
<defs>
<linearGradient id="paint0_linear" x1="498" y1="0.999995" x2="261" y2="718" gradientUnits="userSpaceOnUse">
<stop offset="0.261845" stop-color="#12811D"/>
<stop offset="0.505208" stop-color="#FF6600"/>
</linearGradient>
</defs>
</svg>
