<svg width="173" height="255" viewBox="0 0 173 255" fill="none" xmlns="http://www.w3.org/2000/svg">
<path d="M87.95 254.2C71.85 254.2 57.2667 251.4 44.2 245.8C31.1333 239.967 20.6333 231.1 12.7 219.2C4.76667 207.3 0.566667 192.367 0.100001 174.4H44.2C44.4333 186.3 48.2833 196.333 55.75 204.5C63.45 212.433 74.1833 216.4 87.95 216.4C101.017 216.4 111.05 212.783 118.05 205.55C125.05 198.317 128.55 189.217 128.55 178.25C128.55 165.417 123.883 155.733 114.55 149.2C105.45 142.433 93.6667 139.05 79.2 139.05H61V102.3H79.55C91.45 102.3 101.367 99.5 109.3 93.9C117.233 88.3 121.2 80.0167 121.2 69.05C121.2 59.95 118.167 52.7166 112.1 47.35C106.267 41.75 98.1 38.95 87.6 38.95C76.1667 38.95 67.1833 42.3333 60.65 49.1C54.35 55.8667 50.85 64.15 50.15 73.95H6.4C7.33333 51.3167 15.15 33.4667 29.85 20.4C44.7833 7.33333 64.0333 0.799996 87.6 0.799996C104.4 0.799996 118.517 3.83332 129.95 9.89998C141.617 15.7333 150.367 23.55 156.2 33.35C162.267 43.15 165.3 54 165.3 65.9C165.3 79.6667 161.45 91.3333 153.75 100.9C146.283 110.233 136.95 116.533 125.75 119.8C139.517 122.6 150.717 129.367 159.35 140.1C167.983 150.6 172.3 163.9 172.3 180C172.3 193.533 169.033 205.9 162.5 217.1C155.967 228.3 146.4 237.283 133.8 244.05C121.433 250.817 106.15 254.2 87.95 254.2Z" fill="#12811D" fill-opacity="0.25"/>
</svg>
