<svg width="170" height="250" viewBox="0 0 170 250" fill="none" xmlns="http://www.w3.org/2000/svg">
<path d="M0.850001 250V217.45C15.7833 205.083 30.25 192.833 44.25 180.7C58.4833 168.567 71.0833 156.55 82.05 144.65C93.25 132.75 102.117 121.2 108.65 110C115.417 98.5667 118.8 87.4833 118.8 76.75C118.8 66.7167 116 57.85 110.4 50.15C105.033 42.45 96.05 38.6 83.45 38.6C70.6167 38.6 60.9333 42.8 54.4 51.2C47.8667 59.6 44.6 69.75 44.6 81.65H1.2C1.66667 63.6833 5.63333 48.75 13.1 36.85C20.5667 24.7167 30.4833 15.7333 42.85 9.89998C55.2167 3.83332 69.1 0.799996 84.5 0.799996C109.467 0.799996 128.833 7.68332 142.6 21.45C156.6 34.9833 163.6 52.6 163.6 74.3C163.6 87.8333 160.45 101.017 154.15 113.85C148.083 126.683 140.033 139.05 130 150.95C119.967 162.85 109.117 174.05 97.45 184.55C85.7833 194.817 74.4667 204.383 63.5 213.25H169.55V250H0.850001Z" fill="#12811D" fill-opacity="0.25"/>
</svg>
