<svg width="692" height="638" viewBox="0 0 692 638" fill="none" xmlns="http://www.w3.org/2000/svg">
<path d="M237.18 515.14L132 620.31" stroke="#4D4D4D" stroke-miterlimit="10"/>
<path d="M212.14 486L181.18 516.96" stroke="#4D4D4D" stroke-miterlimit="10"/>
<path d="M239.45 581.16L183.79 636.82" stroke="#4D4D4D" stroke-miterlimit="10"/>
<path d="M200.75 562.95L160.92 602.79" stroke="#4D4D4D" stroke-miterlimit="10"/>
<path d="M670.18 504.14L565 609.31" stroke="#4D4D4D" stroke-miterlimit="10"/>
<path d="M645.14 475L614.18 505.96" stroke="#4D4D4D" stroke-miterlimit="10"/>
<path d="M672.45 570.16L616.79 625.82" stroke="#4D4D4D" stroke-miterlimit="10"/>
<path d="M633.75 551.95L593.92 591.79" stroke="#4D4D4D" stroke-miterlimit="10"/>
<path d="M689.17 30.14L584 135.31" stroke="#4D4D4D" stroke-miterlimit="10"/>
<path d="M664.13 1L633.17 31.96" stroke="#4D4D4D" stroke-miterlimit="10"/>
<path d="M691.45 96.16L635.79 151.82" stroke="#4D4D4D" stroke-miterlimit="10"/>
<path d="M652.75 77.94L612.91 117.78" stroke="#4D4D4D" stroke-miterlimit="10"/>
<path d="M106.17 64.14L1 169.31" stroke="#4D4D4D" stroke-miterlimit="10"/>
<path d="M81.13 35L50.17 65.96" stroke="#4D4D4D" stroke-miterlimit="10"/>
<path d="M108.45 130.16L52.79 185.82" stroke="#4D4D4D" stroke-miterlimit="10"/>
<path d="M69.75 111.94L29.91 151.78" stroke="#4D4D4D" stroke-miterlimit="10"/>
</svg>
