<svg width="48" height="48" viewBox="0 0 48 48" fill="none" xmlns="http://www.w3.org/2000/svg">
<path d="M23.9867 22.8934C29.0014 22.8934 33.0667 18.8281 33.0667 13.8134C33.0667 8.79865 29.0014 4.7334 23.9867 4.7334C18.9719 4.7334 14.9067 8.79865 14.9067 13.8134C14.9067 18.8281 18.9719 22.8934 23.9867 22.8934Z" fill="#3E704D"/>
<path d="M16 35.5333C16.0277 34.7956 16.2735 34.0826 16.7064 33.4846C17.1392 32.8866 17.7396 32.4303 18.4317 32.1734C19.1238 31.9165 19.8766 31.8706 20.5948 32.0415C21.313 32.2123 21.9644 32.5923 22.4667 33.1333L27.6133 38.6666L36.7333 28.4933C32.966 25.9828 28.5268 24.6719 24 24.7333C20.8598 24.6539 17.7404 25.2634 14.861 26.5188C11.9816 27.7742 9.41217 29.6451 7.33334 32C7.15748 32.2344 7.06376 32.5203 7.06667 32.8133V40C7.06636 40.6936 7.3363 41.36 7.81923 41.8579C8.30215 42.3557 8.96005 42.6458 9.65334 42.6666H21.08L16.9867 38.2666C16.6485 37.8997 16.387 37.4689 16.2175 36.9995C16.0481 36.5302 15.9741 36.0317 16 35.5333Z" fill="#3E704D"/>
<path d="M38.3467 42.6667C39.04 42.6459 39.6979 42.3558 40.1808 41.8579C40.6637 41.3601 40.9337 40.6936 40.9333 40V34.9867L34.0933 42.6667H38.3467Z" fill="#3E704D"/>
<path d="M45.0267 24.8267C44.8958 24.7085 44.7428 24.6174 44.5765 24.5587C44.4101 24.5 44.2338 24.4749 44.0577 24.4848C43.8816 24.4947 43.7093 24.5395 43.5506 24.6165C43.3919 24.6935 43.2501 24.8012 43.1333 24.9334L27.64 42.2667L20.7067 34.8134C20.5929 34.6803 20.454 34.571 20.2979 34.4916C20.1418 34.4122 19.9716 34.3643 19.797 34.3507C19.6225 34.3371 19.4469 34.358 19.2804 34.4122C19.1139 34.4664 18.9597 34.5529 18.8267 34.6667C18.7017 34.7907 18.6025 34.9382 18.5348 35.1006C18.4671 35.2631 18.4323 35.4374 18.4323 35.6134C18.4323 35.7894 18.4671 35.9637 18.5348 36.1262C18.6025 36.2886 18.7017 36.4361 18.8267 36.5601L27.7333 46.1601L45.12 26.6667C45.3442 26.407 45.4596 26.0707 45.4422 25.728C45.4249 25.3853 45.276 25.0625 45.0267 24.8267Z" fill="#3E704D"/>
</svg>
