<svg width="20" height="19" viewBox="0 0 20 20" fill="none" xmlns="http://www.w3.org/2000/svg">
<path d="M19 0H4C3.46957 0 2.96086 0.210714 2.58579 0.585786C2.21071 0.960859 2 1.46957 2 2V5H0V7H2V9H0V11H2V13H0V15H2V18C2 18.5304 2.21071 19.0391 2.58579 19.4142C2.96086 19.7893 3.46957 20 4 20H19C19.2652 20 19.5196 19.8946 19.7071 19.7071C19.8946 19.5196 20 19.2652 20 19V1C20 0.734784 19.8946 0.48043 19.7071 0.292893C19.5196 0.105357 19.2652 0 19 0ZM11 2.999C12.648 2.999 14 4.35 14 5.999C13.9971 6.79385 13.6801 7.55533 13.1182 8.11747C12.5562 8.67962 11.7948 8.99684 11 9C9.353 9 8 7.647 8 5.999C8 4.35 9.353 2.999 11 2.999ZM17 16H5V15.25C5 13.031 7.705 10.75 11 10.75C14.295 10.75 17 13.031 17 15.25V16Z" fill="white"/>
</svg>
