<svg width="48" height="48" viewBox="0 0 48 48" fill="none" xmlns="http://www.w3.org/2000/svg">
<path d="M16 21.52H14.84C13.257 21.4628 11.6792 21.7315 10.2044 22.3095C8.72955 22.8875 7.38927 23.7624 6.26669 24.88L5.94669 25.2533V36.2933H11.3867V30.0267L12.12 29.2L12.4534 28.8133C14.1893 27.03 16.3504 25.7177 18.7334 25C17.5399 24.0926 16.5988 22.8945 16 21.52Z" fill="#3E704D"/>
<path d="M41.7867 24.84C40.6641 23.7224 39.3238 22.8475 37.849 22.2695C36.3742 21.6915 34.7963 21.4227 33.2133 21.48C32.7278 21.4813 32.2427 21.508 31.76 21.56C31.1494 22.8492 30.2342 23.9703 29.0933 24.8266C31.6373 25.5304 33.9418 26.9131 35.76 28.8266L36.0933 29.2L36.8133 30.0266V36.3066H42.0667V25.2133L41.7867 24.84Z" fill="#3E704D"/>
<path d="M14.8 18.92H15.2133C15.0213 17.271 15.3106 15.6016 16.0465 14.1134C16.7823 12.6253 17.9331 11.3818 19.36 10.5333C18.8428 9.74312 18.1292 9.10079 17.2891 8.66925C16.449 8.2377 15.5113 8.03172 14.5677 8.07149C13.6241 8.11125 12.707 8.39539 11.9062 8.89609C11.1054 9.39678 10.4484 10.0969 9.99942 10.9278C9.55049 11.7587 9.32505 12.692 9.34517 13.6362C9.3653 14.5804 9.6303 15.5032 10.1142 16.3143C10.5981 17.1253 11.2844 17.7967 12.1058 18.2629C12.9272 18.729 13.8556 18.9738 14.8 18.9733V18.92Z" fill="#3E704D"/>
<path d="M23.8267 23.8933C27.1183 23.8933 29.7867 21.2249 29.7867 17.9333C29.7867 14.6416 27.1183 11.9733 23.8267 11.9733C20.5351 11.9733 17.8667 14.6416 17.8667 17.9333C17.8667 21.2249 20.5351 23.8933 23.8267 23.8933Z" fill="#3E704D"/>
<path d="M24.1467 27.0666C22.4054 26.9963 20.6679 27.279 19.0387 27.8977C17.4095 28.5164 15.9224 29.4582 14.6667 30.6666L14.3333 31.04V39.48C14.3385 39.7549 14.3979 40.0261 14.5079 40.2781C14.6179 40.5301 14.7765 40.7579 14.9746 40.9486C15.1727 41.1393 15.4065 41.289 15.6625 41.3894C15.9185 41.4897 16.1918 41.5386 16.4667 41.5333H31.7867C32.0616 41.5386 32.3349 41.4897 32.5909 41.3894C32.8469 41.289 33.0806 41.1393 33.2787 40.9486C33.4768 40.7579 33.6354 40.5301 33.7455 40.2781C33.8555 40.0261 33.9148 39.7549 33.92 39.48V31.0666L33.6 30.6666C32.3524 29.4545 30.8704 28.51 29.2449 27.891C27.6193 27.2719 25.8845 26.9914 24.1467 27.0666Z" fill="#3E704D"/>
<path d="M32.5733 17.9199C32.5895 18.2264 32.5895 18.5335 32.5733 18.8399C32.8292 18.8805 33.0876 18.9028 33.3466 18.9066H33.6C34.8399 18.8614 36.0264 18.3905 36.96 17.5733C35.1272 16.9783 33.5053 15.8665 32.2895 14.3715C31.0737 12.8766 30.3157 11.0622 30.1066 9.14661C29.5195 9.55255 29.0168 10.0688 28.6266 10.6666C29.8334 11.4545 30.8257 12.5297 31.5146 13.7956C32.2034 15.0616 32.5672 16.4787 32.5733 17.9199Z" fill="#3E704D"/>
<path d="M40 14.6667C43.6819 14.6667 46.6666 11.6819 46.6666 8.00004C46.6666 4.31814 43.6819 1.33337 40 1.33337C36.3181 1.33337 33.3333 4.31814 33.3333 8.00004C33.3333 11.6819 36.3181 14.6667 40 14.6667Z" fill="#3E704D"/>
</svg>
