<svg width="19" height="19" viewBox="0 0 19 19" fill="none" xmlns="http://www.w3.org/2000/svg">
<path d="M0 1C0 0.734784 0.105357 0.48043 0.292893 0.292893C0.48043 0.105357 0.734784 0 1 0C1.26522 0 1.51957 0.105357 1.70711 0.292893C1.89464 0.48043 2 0.734784 2 1H18C18.2652 1 18.5196 1.10536 18.7071 1.29289C18.8946 1.48043 19 1.73478 19 2C19 2.26522 18.8946 2.51957 18.7071 2.70711C18.5196 2.89464 18.2652 3 18 3H2V18.5C2 18.6326 1.94732 18.7598 1.85355 18.8536C1.75979 18.9473 1.63261 19 1.5 19H0.5C0.367392 19 0.240215 18.9473 0.146447 18.8536C0.0526785 18.7598 0 18.6326 0 18.5V1Z" fill="white"/>
<path d="M3 4.75C3 4.55109 3.07902 4.36032 3.21967 4.21967C3.36032 4.07902 3.55109 4 3.75 4H17.25C17.4489 4 17.6397 4.07902 17.7803 4.21967C17.921 4.36032 18 4.55109 18 4.75V13.25C18 13.9793 17.7103 14.6788 17.1945 15.1945C16.6788 15.7103 15.9793 16 15.25 16H5.75C5.38886 16 5.03127 15.9289 4.69762 15.7907C4.36398 15.6525 4.06082 15.4499 3.80546 15.1945C3.28973 14.6788 3 13.9793 3 13.25V4.75ZM7 9.46V12.5C7 12.6326 7.05268 12.7598 7.14645 12.8536C7.24021 12.9473 7.36739 13 7.5 13H9.25C9.3163 13 9.37989 12.9737 9.42678 12.9268C9.47366 12.8799 9.5 12.8163 9.5 12.75V11.5C9.5 11.3674 9.55268 11.2402 9.64645 11.1464C9.74021 11.0527 9.86739 11 10 11H11C11.1326 11 11.2598 11.0527 11.3536 11.1464C11.4473 11.2402 11.5 11.3674 11.5 11.5V12.75C11.5 12.888 11.612 13 11.75 13H13.5C13.6326 13 13.7598 12.9473 13.8536 12.8536C13.9473 12.7598 14 12.6326 14 12.5V9.46C14 9.31556 13.9687 9.17283 13.9083 9.04163C13.8479 8.91044 13.7598 8.79389 13.65 8.7L10.826 6.28C10.7354 6.20254 10.6202 6.15997 10.501 6.15997C10.3818 6.15997 10.2666 6.20254 10.176 6.28L7.349 8.7C7.23955 8.79387 7.15169 8.9103 7.09145 9.04131C7.03121 9.17232 7.00001 9.31481 7 9.459V9.46Z" fill="white"/>
</svg>
