<svg width="48" height="48" viewBox="0 0 48 48" fill="none" xmlns="http://www.w3.org/2000/svg">
<path d="M46.6725 25.4156L38.0325 21.1969C37.725 21.0469 37.0875 20.85 36.3675 21.1969L27.7275 25.4156C26.925 25.8094 26.4 26.7281 26.4 27.75C26.4 38.2125 31.5525 45.45 36.3675 47.8031C37.0875 48.15 37.7175 47.9531 38.0325 47.8031C41.88 45.9281 48 39.4219 48 27.75C48 26.7281 47.475 25.8094 46.6725 25.4156ZM37.2 43.35V25.6219L44.3625 29.1188C43.9425 37.2844 39.795 41.8125 37.2 43.35ZM16.8 24C22.1025 24 26.4 18.6281 26.4 12C26.4 5.37188 22.1025 0 16.8 0C11.4975 0 7.2 5.37188 7.2 12C7.2 18.6281 11.4975 24 16.8 24ZM24 27.75C24 27.5156 24.06 27.3 24.0825 27.075C23.895 27.0656 23.715 27 23.52 27H22.2675C20.6025 27.9562 18.75 28.5 16.8 28.5C14.85 28.5 13.005 27.9562 11.3325 27H10.08C4.515 27 0 32.6437 0 39.6V43.5C0 45.9844 1.6125 48 3.6 48H30C30.51 48 30.9975 47.8594 31.44 47.625C27.39 43.6031 24 36.6844 24 27.75Z" fill="#3E704D"/>
</svg>
