<svg width="24" height="20" viewBox="0 0 24 24" fill="none" xmlns="http://www.w3.org/2000/svg">
<path d="M18.7095 11.919C21.5866 11.919 23.919 10.594 23.919 8.9595C23.919 7.32501 21.5866 6 18.7095 6C15.8324 6 13.5 7.32501 13.5 8.9595C13.5 10.594 15.8324 11.919 18.7095 11.919Z" fill="white"/>
<path fill-rule="evenodd" clip-rule="evenodd" d="M18.7875 13.6215C15.0615 13.6215 13.578 12.06 13.578 11.1555V15.03C13.578 16.665 15.9105 17.988 18.7875 17.988C21.6675 17.988 24 16.665 24 15.03V11.2485C24 12.1545 22.515 13.6215 18.7875 13.6215V13.6215Z" fill="white"/>
<path fill-rule="evenodd" clip-rule="evenodd" d="M18.7875 19.608C15.4545 19.608 13.578 18.1065 13.578 17.202V21.0405C13.578 22.6755 15.9105 24 18.7875 24C21.6675 24 24 22.6755 24 21.0405V17.1555C24 18.06 22.122 19.608 18.7875 19.608V19.608Z" fill="white"/>
<path d="M5.9055 5.919C9.16702 5.919 11.811 4.59399 11.811 2.9595C11.811 1.32501 9.16702 0 5.9055 0C2.64398 0 0 1.32501 0 2.9595C0 4.59399 2.64398 5.919 5.9055 5.919Z" fill="white"/>
<path fill-rule="evenodd" clip-rule="evenodd" d="M6.093 7.62152C1.8705 7.62152 0.1875 6.06002 0.1875 5.15552V9.03002C0.1875 10.665 2.832 11.988 6.093 11.988C9.357 11.988 12 10.665 12 9.03002V5.24852C12 6.15452 10.3155 7.62152 6.093 7.62152V7.62152Z" fill="white"/>
<path fill-rule="evenodd" clip-rule="evenodd" d="M6.093 13.608C2.3145 13.608 0.1875 12.1065 0.1875 11.202V15.0405C0.1875 16.6755 2.832 18 6.093 18C9.357 18 12 16.6755 12 15.0405V11.1555C12 12.06 9.87 13.608 6.093 13.608V13.608Z" fill="white"/>
<path fill-rule="evenodd" clip-rule="evenodd" d="M6.093 19.608C2.3145 19.608 0.1875 18.1065 0.1875 17.202V21.0405C0.1875 22.6755 2.832 24 6.093 24C9.357 24 12 22.6755 12 21.0405V17.1555C12 18.06 9.87 19.608 6.093 19.608V19.608Z" fill="white"/>
</svg>
