<svg id="Capa_1" enable-background="new 0 0 512 512" height="512" viewBox="0 0 512 512" width="512" xmlns="http://www.w3.org/2000/svg"><g><path d="m512 61.772v-30h-78.5v-17.5h-95v17.5h-165v-17.5h-95v17.5h-78.5v30h78.5v67.5h-78.5v30h78.5v17.5h95v-17.5h165v17.5h95v-17.5h78.5v-30h-78.5v-67.5zm-403.5-17.5h35v102.5h-35zm162.5 85v-11.758l17.719-19.753-22.332-20.032-25.387 28.301v23.242h-67.5v-67.5h165v67.5zm132.5 17.5h-35v-102.5h35z"/><path d="m256 497.728c-26.224 0-47.559-21.335-47.559-47.559 0-31.307 33.117-65.703 36.893-69.522l10.666-10.788 10.666 10.787c3.776 3.819 36.893 38.215 36.893 69.522 0 26.225-21.335 47.56-47.559 47.56zm0-83.58c-7.958 9.386-17.559 23.986-17.559 36.02 0 9.682 7.877 17.559 17.559 17.559s17.559-7.877 17.559-17.559c0-12.197-8.419-24.79-17.559-36.02z"/><path d="m138.03 419.228c-26.224 0-47.559-21.335-47.559-47.559 0-31.307 33.117-65.703 36.893-69.522l10.666-10.787 10.666 10.787c3.776 3.819 36.893 38.215 36.893 69.522 0 26.224-21.335 47.559-47.559 47.559zm0-83.58c-7.958 9.386-17.559 23.986-17.559 36.02 0 9.682 7.877 17.559 17.559 17.559s17.559-7.877 17.559-17.559c0-12.197-8.42-24.79-17.559-36.02z"/></g><path d="m373.97 419.228c-26.224 0-47.559-21.335-47.559-47.559 0-31.307 33.117-65.703 36.893-69.522l10.666-10.787 10.666 10.787c3.776 3.819 36.893 38.215 36.893 69.522.001 26.224-21.334 47.559-47.559 47.559zm0-83.58c-7.958 9.386-17.559 23.986-17.559 36.02 0 9.682 7.877 17.559 17.559 17.559s17.559-7.877 17.559-17.559c.001-12.197-8.419-24.79-17.559-36.02z"/><path d="m292.31 224.37c-21.27-27.81-22.41-27.67-36.31-41.82-13.9 14.15-15.04 14.01-36.31 41.82-17.8 25.13-26.83 47.57-26.83 66.72 0 34.81 28.32 63.14 63.14 63.14s63.14-28.33 63.14-63.14c0-19.15-9.03-41.59-26.83-66.72zm-36.31 99.86c-18.27 0-33.14-14.87-33.14-33.14 0-20.28 19.11-47.82 33.14-64.73 14.03 16.91 33.14 44.45 33.14 64.73 0 18.27-14.87 33.14-33.14 33.14z"/></svg>