<svg width="48" height="48" viewBox="0 0 48 48" fill="none" xmlns="http://www.w3.org/2000/svg">
<path d="M15 9C15 6.61305 15.9482 4.32387 17.636 2.63604C19.3238 0.948211 21.613 0 24 0C26.3869 0 28.6761 0.948211 30.3639 2.63604C32.0518 4.32387 33 6.61305 33 9C33 11.3869 32.0518 13.6761 30.3639 15.364C28.6761 17.0518 26.3869 18 24 18C21.613 18 19.3238 17.0518 17.636 15.364C15.9482 13.6761 15 11.3869 15 9ZM36.003 21H34.344L25.011 39.948L28.5 22.5L24 18L19.5 22.5L22.989 39.948L13.656 21H11.994C5.99698 21 5.99698 25.032 5.99698 30V45H41.997V30C41.997 25.032 41.997 21 36 21H36.003Z" fill="#3E704D"/>
</svg>
